<svg width="120" height="120" viewBox="0 0 120 120" fill="none" xmlns="http://www.w3.org/2000/svg">
<path d="M107 106.787C107 106.905 106.905 107 106.787 107H13.2132C13.095 107 13 106.905 13 106.787C13 106.669 13.095 106.574 13.2132 106.574H106.787C106.905 106.574 107 106.669 107 106.787Z" fill="white"/>
<path d="M77.953 96.4288L79.028 100.898L75.8031 101.792L75.0864 96.9652L77.953 96.4288Z" fill="#FFB6B6"/>
<path d="M83.1487 81.9475L79.7446 84.808L77.5947 88.2049L80.6405 90.1715L85.8361 84.2717L83.1487 81.9475Z" fill="#FFB6B6"/>
<path d="M82.0737 52.4485L84.9402 62.1027C84.9402 62.1027 97.6606 73.1872 96.4065 75.5113C95.1524 77.8355 86.7318 84.2716 86.7318 84.2716C86.7318 84.2716 87.3568 86.3297 85.5214 85.4795C83.6861 84.6292 81.7153 82.305 81.7153 82.305C81.7153 82.305 81.7153 80.5172 82.6111 80.8748C83.5069 81.2323 87.6276 76.4052 87.6276 76.4052L78.6696 68.1813V95.6806C78.6696 95.6806 80.8195 97.5564 78.6696 97.7077C76.5197 97.859 74.5489 98.2166 74.5489 98.2166C74.5489 98.2166 72.0407 97.3227 72.9365 96.4288L70.2491 81.7687L68.2783 63.8905L69.7116 54.5939L82.0737 52.4485Z" fill="#2F2E41"/>
<path d="M76.3404 100.362C76.3404 100.362 76.5196 99.647 77.2362 99.647H79.4249C79.4249 99.647 80.1028 102.686 79.9236 102.686C79.7445 102.686 82.7902 106.619 79.5653 106.798C76.3404 106.977 75.4446 106.619 75.4446 106.619L75.0863 105.208C75.0863 105.208 74.5488 104.295 74.728 103.58C74.9071 102.865 76.3404 100.362 76.3404 100.362Z" fill="#2F2E41"/>
<path d="M80.8197 88.7413C80.8197 88.7413 82.8775 88.7089 82.3861 89.2615C81.8947 89.814 80.9989 90.7079 80.9989 90.7079C80.9989 90.7079 78.8679 94.9987 77.8731 94.1942C76.8782 93.3896 75.2658 84.4506 75.8033 83.3779C76.3407 82.3052 77.0574 82.3052 77.0574 82.3052L80.3627 84.2889C80.3627 84.2889 78.3115 89.2777 80.8197 88.7413Z" fill="#2F2E41"/>
<path d="M75.8031 37.2521L76.5198 32.7825L71.6825 30.8159L70.9658 37.6096L75.8031 37.2521Z" fill="#FFB6B6"/>
<path opacity="0.1" d="M75.8031 37.2521L76.5198 32.7825L71.6825 30.8159L70.9658 37.6096L75.8031 37.2521Z" fill="black"/>
<path d="M70.6972 36.6264L76.4303 35.1962L82.5217 37.1628C82.5217 37.1628 85.2091 44.6716 84.3133 47.3533C83.4175 50.035 83.4175 55.2732 83.4175 55.2732C83.4175 55.2732 83.3279 52.9849 78.1323 54.594C72.9367 56.203 69.1743 56.0242 69.1743 56.0242L68.9951 49.5881L66.7445 43.8712C65.7825 41.4277 66.8194 38.6534 69.1499 37.4352L70.6972 36.6264Z" fill="#E6E6E6"/>
<path d="M97.0145 57.6873C97.8235 58.6545 97.9791 59.855 97.3622 60.3686C96.7454 60.8823 95.5897 60.5146 94.7806 59.547C94.4521 59.1649 94.22 58.7098 94.1038 58.2199L90.728 54.0789L92.3724 52.751L95.8268 56.7852C96.2892 56.987 96.6965 57.2963 97.0145 57.6873Z" fill="#FFB6B6"/>
<path d="M82.2614 37.2198L81.0864 41.8639L86.8369 51.0495L92.7073 56.937L94.6101 55.3618L88.6896 48.0109L84.202 38.5395L82.2614 37.2198Z" fill="#E6E6E6"/>
<path d="M95.9508 32.7373C100.046 32.4353 103.055 27.9997 102.672 22.83C102.29 17.6603 98.6595 13.7143 94.5643 14.0163C90.4692 14.3183 87.4598 18.754 87.8426 23.9236C88.2255 29.0933 91.8556 33.0393 95.9508 32.7373Z" fill="#2CB543"/>
<path d="M92 22.7778L94.5 25L99 21" stroke="white" stroke-width="2"/>
<path d="M95.7948 32.7373H95.4365V68.3932H95.7948V32.7373Z" fill="#2F2E41"/>
<path d="M95.8843 31.9844L95.9273 33.2478L96.4995 34.4174L94.1123 34.296L95.1158 33.2888L95.0023 32.1408L95.8843 31.9844Z" fill="#2CB543"/>
<path d="M74.5809 34.2194C77.3052 34.2194 79.5138 32.0155 79.5138 29.2969C79.5138 26.5783 77.3052 24.3744 74.5809 24.3744C71.8565 24.3744 69.6479 26.5783 69.6479 29.2969C69.6479 32.0155 71.8565 34.2194 74.5809 34.2194Z" fill="#FFB6B6"/>
<path d="M74.187 22.6789C74.3298 22.7621 74.521 22.6363 74.5667 22.4778C74.6125 22.3193 74.5592 22.1511 74.5063 21.9948L74.2402 21.2081C74.0514 20.6502 73.851 20.0728 73.4422 19.6482C72.8252 19.0073 71.8446 18.8442 70.9618 18.9623C69.8282 19.114 68.7097 19.7266 68.1826 20.7395C67.6554 21.7525 67.8799 23.1659 68.8323 23.7978C67.4749 25.3504 67.0017 27.0807 67.0764 29.1398C67.1511 31.1989 69.3997 33.0939 70.8662 34.5444C71.1936 34.3463 71.4914 33.418 71.3113 33.0807C71.1312 32.7435 71.3892 32.3528 71.1662 32.0421C70.9432 31.7315 70.7566 32.2261 70.982 31.9173C71.1243 31.7223 70.569 31.274 70.7805 31.1573C71.8034 30.5931 72.1436 29.3207 72.7861 28.3464C73.561 27.1712 74.8873 26.3753 76.2909 26.2432C77.0641 26.1705 77.8807 26.3022 78.5145 26.7502C79.1482 27.1981 79.5585 27.9985 79.4116 28.7595C79.7922 28.3739 79.9816 27.8087 79.9101 27.2722C79.8387 26.7356 79.5079 26.2395 79.0396 25.9664C79.3243 25.0267 79.0804 23.9458 78.4194 23.2186C77.7585 22.4915 75.0773 22.6153 74.1124 22.8067" fill="#2F2E41"/>
<path d="M74.037 26.2717C72.759 26.4094 71.8363 27.5141 71.0571 28.5343C70.6079 29.1223 70.1375 29.7717 70.1488 30.511C70.1602 31.2584 70.661 31.8994 70.9003 32.6077C71.2915 33.7655 70.9102 35.1429 69.979 35.9362C70.8991 36.1105 71.8938 35.422 72.0527 34.501C72.2376 33.4288 71.4231 32.3939 71.5196 31.3103C71.6045 30.3555 72.3585 29.6207 72.9995 28.9069C73.6405 28.193 74.2425 27.2457 73.9476 26.3335" fill="#2F2E41"/>
<path d="M69.3325 55.9346H32.4849C28.3063 55.9346 24.9189 59.3148 24.9189 63.4845V99.1395C24.9189 103.309 28.3063 106.689 32.4849 106.689H69.3325C73.5111 106.689 76.8985 103.309 76.8985 99.1394V63.4845C76.8985 59.3148 73.5111 55.9346 69.3325 55.9346Z" fill="white"/>
<path d="M69.333 106.868H32.4853C28.2147 106.868 24.7402 103.401 24.7402 99.1395V63.4846C24.7402 59.223 28.2147 55.7559 32.4853 55.7559H69.333C73.6036 55.7559 77.0781 59.223 77.0781 63.4846V99.1395C77.0781 103.401 73.6036 106.868 69.333 106.868ZM32.4853 56.1134C28.4122 56.1134 25.0986 59.4201 25.0986 63.4846V99.1395C25.0986 103.204 28.4122 106.511 32.4853 106.511H69.333C73.4061 106.511 76.7198 103.204 76.7198 99.1395V63.4846C76.7198 59.4201 73.4061 56.1134 69.333 56.1134H32.4853Z" fill="white"/>
<path d="M65.4448 59.4423C65.9166 59.4423 66.2992 59.0606 66.2992 58.5897C66.2992 58.1188 65.9166 57.7371 65.4448 57.7371C64.9729 57.7371 64.5903 58.1188 64.5903 58.5897C64.5903 59.0606 64.9729 59.4423 65.4448 59.4423Z" fill="#3F3D56"/>
<path d="M67.7944 59.4423C68.2662 59.4423 68.6488 59.0606 68.6488 58.5897C68.6488 58.1188 68.2662 57.7371 67.7944 57.7371C67.3225 57.7371 66.9399 58.1188 66.9399 58.5897C66.9399 59.0606 67.3225 59.4423 67.7944 59.4423Z" fill="#3F3D56"/>
<path d="M70.144 59.4423C70.6159 59.4423 70.9984 59.0606 70.9984 58.5897C70.9984 58.1188 70.6159 57.7371 70.144 57.7371C69.6721 57.7371 69.2896 58.1188 69.2896 58.5897C69.2896 59.0606 69.6721 59.4423 70.144 59.4423Z" fill="#3F3D56"/>
<path d="M31.2773 94.207C31.0118 94.207 30.7959 94.4225 30.7959 94.6874C30.7959 94.8166 30.8459 94.936 30.9366 95.0242C31.0281 95.1177 31.148 95.1678 31.2773 95.1678H69.8144C70.0798 95.1678 70.2957 94.9523 70.2957 94.6874C70.2957 94.5582 70.2458 94.4388 70.155 94.3506C70.0635 94.2571 69.9436 94.207 69.8144 94.207H31.2773Z" fill="#E6E6E6"/>
<path d="M51.8831 94.0469V95.3279H31.2771C31.1006 95.3279 30.9401 95.2574 30.8246 95.1389C30.7058 95.0236 30.6353 94.8635 30.6353 94.6874C30.6353 94.3351 30.9241 94.0469 31.2771 94.0469L51.8831 94.0469Z" fill="#FF8733"/>
<path d="M69.0118 91.645H62.5933C61.8854 91.645 61.3096 91.0705 61.3096 90.364C61.3096 89.6575 61.8854 89.083 62.5933 89.083H69.0118C69.7196 89.083 70.2955 89.6575 70.2955 90.364C70.2955 91.0705 69.7196 91.645 69.0118 91.645Z" fill="#E6E6E6"/>
<path d="M44.8987 92.5605L40.4118 77.5164L40.0684 77.6183L44.5395 92.6095" fill="#2F2E41"/>
<path d="M45.0538 58.3228C49.1489 58.0208 52.1584 53.5851 51.7755 48.4155C51.3927 43.2458 47.7625 39.2998 43.6674 39.6018C39.5722 39.9037 36.5628 44.3394 36.9456 49.5091C37.3285 54.6787 40.9586 58.6248 45.0538 58.3228Z" fill="#FF8733"/>
<path d="M44.8979 58.3228H44.5396V93.9786H44.8979V58.3228Z" fill="#2F2E41"/>
<path d="M40.6135 77.0804L41.0158 78.2792L41.8985 79.2374L39.5757 79.8003L40.2496 78.5494L39.8129 77.4813L40.6135 77.0804Z" fill="#FF8733"/>
<path d="M44.9873 57.5698L45.0303 58.8333L45.6025 60.0029L43.2153 59.8814L44.2188 58.8742L44.1054 57.7262L44.9873 57.5698Z" fill="#FF8733"/>
<path d="M40.734 77.3947C44.5693 75.9306 46.1738 70.8189 44.3178 65.9773C42.4617 61.1357 37.848 58.3976 34.0127 59.8617C30.1775 61.3257 28.573 66.4375 30.429 71.2791C32.285 76.1207 36.8987 78.8587 40.734 77.3947Z" fill="#FF8733"/>
<path d="M73.289 54.1047C74.4976 54.4688 75.2889 55.3862 75.0566 56.1536C74.8242 56.9211 73.6563 57.2479 72.4474 56.8835C71.9625 56.7446 71.5179 56.4918 71.151 56.1462L66.0498 54.539L66.6919 52.5276L71.7999 54.0026C72.2973 53.9175 72.8079 53.9525 73.289 54.1047Z" fill="#FFB6B6"/>
<path d="M64.4263 40.9171L69.8011 36.9839L69.6219 44.4927L64.6054 50.9289L69.9802 53.0742L69.8011 56.1374C69.8011 56.1374 62.993 54.5045 61.918 54.3257C60.8431 54.1469 59.9473 51.644 59.9473 51.644L64.4263 40.9171Z" fill="#E6E6E6"/>
</svg>
