<svg width="120" height="120" viewBox="0 0 120 120" fill="none" xmlns="http://www.w3.org/2000/svg">
<g clip-path="url(#clip0_1_3955)">
<path d="M35.1738 103.351C35.6318 103.787 36.1941 104.098 36.8066 104.253C37.4191 104.408 38.061 104.402 38.6706 104.236C40.2331 103.792 41.2935 102.379 42.2346 101.052L45.0195 97.1274L42.6725 97.5589C40.9847 97.869 39.2551 98.1948 37.7853 99.0825C36.3154 99.9703 35.1381 101.555 35.2312 103.273" fill="#E6E6E6"/>
<path d="M32.9921 108.638C33.4037 107.231 33.8176 105.805 34.5443 104.522C35.1898 103.384 36.0716 102.385 37.2351 101.763C37.8522 101.435 38.5217 101.216 39.2137 101.118C39.3942 101.093 39.4236 101.374 39.244 101.4C38.0459 101.571 36.9332 102.12 36.0662 102.966C35.1051 103.909 34.4747 105.124 34.0087 106.375C33.7264 107.131 33.4988 107.906 33.2721 108.681C33.2654 108.717 33.245 108.75 33.215 108.772C33.185 108.794 33.1478 108.804 33.1109 108.799C33.074 108.793 33.0408 108.773 33.0187 108.743C32.9966 108.713 32.9873 108.675 32.9928 108.638L32.9921 108.638Z" fill="#F2F2F2"/>
<path d="M78.3124 51.9759C78.5799 51.9112 78.8583 51.9062 79.1279 51.9611C79.3976 52.016 79.6519 52.1295 79.8731 52.2936C80.0943 52.4577 80.2768 52.6684 80.408 52.9109C80.5391 53.1533 80.6156 53.4217 80.6321 53.697L87.0709 55.5115L84.4437 57.7926L78.7321 55.7198C78.2688 55.7169 77.8227 55.5437 77.4783 55.2332C77.1339 54.9226 76.9151 54.4962 76.8634 54.0347C76.8117 53.5732 76.9306 53.1087 77.1977 52.7293C77.4647 52.3498 77.8614 52.0817 78.3124 51.9759Z" fill="white"/>
<path d="M94.8581 106.936L92.9813 106.936L92.0884 99.6788L94.8585 99.679L94.8581 106.936Z" fill="#FFB7B7"/>
<path d="M95.3368 108.76L89.2852 108.759V108.683C89.2852 108.057 89.5334 107.456 89.9751 107.013C90.4168 106.57 91.0159 106.322 91.6406 106.322L95.3369 106.322L95.3368 108.76Z" fill="#2F2E41"/>
<path d="M105.856 106.936L103.979 106.936L103.086 99.6788L105.856 99.679L105.856 106.936Z" fill="#FFB7B7"/>
<path d="M106.334 108.76L100.283 108.759V108.683C100.283 108.057 100.531 107.456 100.973 107.013C101.414 106.57 102.013 106.322 102.638 106.322L106.334 106.322L106.334 108.76Z" fill="#2F2E41"/>
<path d="M93.3247 65.2844L90.5601 84.481L91.2489 104.707L95.4003 105.038L96.6985 86.8995L100.003 76.7855L101.946 91.2029L102.026 104.707L106.313 105.038L107.808 76.6483L106.708 64.3018L93.3247 65.2844Z" fill="#2F2E41"/>
<path d="M101.321 39.5826C103.736 39.5826 105.694 37.6197 105.694 35.1983C105.694 32.7769 103.736 30.814 101.321 30.814C98.9054 30.814 96.9473 32.7769 96.9473 35.1983C96.9473 37.6197 98.9054 39.5826 101.321 39.5826Z" fill="#FFB7B7"/>
<path d="M98.6252 41.9674L93.7969 66.3516C93.7969 66.3516 101.926 68.6905 105.487 66.5314C109.048 64.3722 107.453 57.7067 107.453 57.7067L106.8 46.3649L105.595 43.4967L104.572 41.1292L98.6252 41.9674Z" fill="#CBCBCB"/>
<path d="M97.2122 59.276L98.8801 41.494L97.5462 42.4703L92.8824 43.9887L92.5632 56.5078L89.3008 72.9707C89.3008 72.9707 91.6327 77.5322 94.5227 69.9857L97.2122 59.276Z" fill="#3F3D56"/>
<path d="M95.1265 45.8609L92.8821 43.9885L87.8375 54.9738L82.2084 53.7378L81.9424 57.0705L90.0984 60.3062L95.6563 52.5495L95.1265 45.8609Z" fill="#3F3D56"/>
<path d="M103.858 55.3837L104.487 40.9116L106.8 42.7075L110.932 43.8619L110.326 55.3837L111.198 73.2618L106.866 74.637L105.651 63.3559L103.858 55.3837Z" fill="white"/>
<path d="M104.136 67.0336C104.185 66.7621 104.292 66.5045 104.45 66.2791C104.609 66.0536 104.815 65.8657 105.054 65.7286C105.292 65.5916 105.558 65.5086 105.832 65.4857C106.107 65.4628 106.383 65.5004 106.641 65.5959L110.885 60.4144L111.913 63.7428L107.725 68.1529C107.536 68.577 107.199 68.9169 106.777 69.1082C106.354 69.2996 105.877 69.3291 105.435 69.1911C104.992 69.0531 104.616 68.7573 104.377 68.3597C104.137 67.962 104.052 67.4902 104.136 67.0336Z" fill="#FFB7B7"/>
<path d="M108.165 45.4684L110.931 43.8619L117.891 57.6401L111.106 67.0859L107.235 63.9837L111.935 57.84L107.652 51.2412L108.165 45.4684Z" fill="#3F3D56"/>
<path d="M105.434 31.6933L105.646 31.2655L104.579 30.7341C104.579 30.7341 103.402 28.8144 101.273 29.3539C99.1429 29.8934 98.1847 30.2162 98.1847 30.2162L97.1205 30.753L97.6546 31.2857L96.6965 31.6086L97.3366 31.9274L96.5918 32.3566L96.9927 34.5565C96.9927 34.5565 97.6587 32.888 98.9389 33.5256C100.219 34.1632 102.561 33.196 102.561 33.196L104.595 37.143C104.595 37.143 105.015 35.7594 105.763 36.1283C105.763 36.1283 107.675 33.0762 105.434 31.6933Z" fill="#2F2E41"/>
<path d="M78.8684 38.1256H78.8404L62.8014 44.9912L40.8567 54.3849C40.771 54.4211 40.6789 54.4399 40.5859 54.4404C40.4929 54.4409 40.4007 54.423 40.3146 54.3877L17.6741 44.9716L1.24102 38.1368L1.21592 38.1256H1.18794C0.928652 38.1259 0.680067 38.2293 0.496723 38.4131C0.313379 38.5969 0.21025 38.8461 0.209961 39.106V81.6835C0.21025 81.9434 0.313379 82.1926 0.496723 82.3764C0.680067 82.5602 0.928652 82.6636 1.18794 82.6639H78.8684C79.1277 82.6636 79.3763 82.5602 79.5596 82.3764C79.743 82.1926 79.8461 81.9434 79.8464 81.6835V39.106C79.8461 38.8461 79.743 38.5969 79.5596 38.4131C79.3763 38.2293 79.1277 38.1259 78.8684 38.1256Z" fill="white"/>
<path d="M78.9378 38.4057C78.9093 38.4057 78.8814 38.397 78.858 38.3806L40.2191 11.4051C40.1015 11.3233 39.9618 11.2797 39.8187 11.2799C39.6757 11.2802 39.5361 11.3243 39.4188 11.4064L1.05821 38.3804C1.02787 38.4016 0.990342 38.41 0.953874 38.4035C0.917406 38.3971 0.884979 38.3764 0.863715 38.346C0.842452 38.3156 0.83409 38.278 0.840467 38.2414C0.846844 38.2049 0.867438 38.1723 0.897726 38.151L39.2583 11.1771C39.4226 11.0621 39.618 11.0003 39.8183 11C40.0186 10.9997 40.2142 11.0608 40.3788 11.1752L79.0177 38.1507C79.0421 38.1678 79.0605 38.1922 79.0701 38.2204C79.0797 38.2486 79.0801 38.2792 79.0711 38.3076C79.0622 38.3361 79.0445 38.3609 79.0205 38.3786C78.9965 38.3962 78.9675 38.4057 78.9378 38.4057Z" fill="#3F3D56"/>
<path d="M3.25 39.362L39.8564 12.1652L76.7408 41.2971L41.7425 62.0956L22.7416 57.7539L3.25 39.362Z" fill="#E6E6E6"/>
<path d="M24.3459 74.942H6.26136C6.15031 74.9423 6.04029 74.9207 5.93758 74.8783C5.83488 74.836 5.74151 74.7738 5.66282 74.6952C5.58412 74.6167 5.52165 74.5233 5.47896 74.4206C5.43628 74.3178 5.41423 74.2076 5.41406 74.0963C5.4139 73.9849 5.43563 73.8747 5.47801 73.7718C5.52039 73.6689 5.58259 73.5754 5.66105 73.4966C5.73952 73.4178 5.8327 73.3553 5.93528 73.3127C6.03786 73.27 6.14782 73.2481 6.25887 73.2481H24.3459C24.4569 73.2477 24.5669 73.2694 24.6696 73.3117C24.7724 73.3541 24.8657 73.4163 24.9444 73.4948C25.0231 73.5734 25.0856 73.6667 25.1283 73.7695C25.1709 73.8722 25.193 73.9825 25.1932 74.0938C25.1933 74.2051 25.1716 74.3154 25.1292 74.4183C25.0868 74.5212 25.0246 74.6147 24.9462 74.6935C24.8677 74.7722 24.7745 74.8347 24.6719 74.8774C24.5694 74.92 24.4594 74.942 24.3484 74.942H24.3459Z" fill="#FF8733"/>
<path d="M12.7497 71.3005H6.26136C6.15031 71.3008 6.04029 71.2792 5.93758 71.2369C5.83488 71.1945 5.74151 71.1323 5.66282 71.0537C5.58412 70.9752 5.52165 70.8819 5.47897 70.7791C5.43628 70.6763 5.41423 70.5661 5.41406 70.4548C5.4139 70.3435 5.43563 70.2332 5.47801 70.1303C5.52039 70.0274 5.58259 69.9339 5.66105 69.8551C5.73952 69.7763 5.83271 69.7138 5.93528 69.6712C6.03786 69.6285 6.14782 69.6066 6.25887 69.6066H12.7497C12.9736 69.6065 13.1883 69.6956 13.3467 69.8542C13.5052 70.0127 13.5944 70.2279 13.5947 70.4523C13.595 70.6767 13.5065 70.8921 13.3485 71.0512C13.1905 71.2102 12.9761 71.2999 12.7522 71.3005H12.7497Z" fill="#FF8733"/>
<path d="M40.3717 54.5103C40.2343 54.5104 40.0981 54.4837 39.9709 54.4315L17.3945 45.0409V15.6464C17.3948 15.3865 17.498 15.1373 17.6813 14.9535C17.8646 14.7697 18.1132 14.6663 18.3725 14.666H61.6836C61.9429 14.6663 62.1915 14.7697 62.3748 14.9535C62.5581 15.1373 62.6613 15.3865 62.6616 15.6464V45.0614L62.6191 45.0796L40.7847 54.427C40.654 54.482 40.5136 54.5104 40.3717 54.5103Z" fill="#FF8733"/>
<path d="M78.6585 38.1256H78.6305L62.5915 44.9912L40.6467 54.3849C40.561 54.421 40.469 54.4399 40.376 54.4404C40.2829 54.4409 40.1907 54.423 40.1046 54.3877L17.4641 44.9716L1.03107 38.1368L1.00597 38.1256H0.97798C0.718691 38.1259 0.470106 38.2293 0.286762 38.4131C0.103418 38.5969 0.000288364 38.8461 0 39.106V81.6835C0.000288365 81.9434 0.103418 82.1926 0.286762 82.3764C0.470106 82.5602 0.718691 82.6636 0.97798 82.6639H78.6585C78.9178 82.6636 79.1663 82.5602 79.3497 82.3764C79.533 82.1926 79.6362 81.9434 79.6364 81.6835V39.106C79.6362 38.8461 79.533 38.5969 79.3497 38.4131C79.1663 38.2293 78.9178 38.1259 78.6585 38.1256ZM79.357 81.6835C79.357 81.8692 79.2833 82.0473 79.1524 82.1786C79.0214 82.3099 78.8437 82.3837 78.6585 82.3838H0.97798C0.792731 82.3837 0.61509 82.3099 0.484099 82.1786C0.353108 82.0473 0.279483 81.8692 0.27941 81.6835V39.106C0.279663 38.9249 0.349735 38.7509 0.474978 38.6204C0.60022 38.4899 0.770937 38.413 0.951441 38.4057L17.4641 45.2741L39.9971 54.6468C40.241 54.7463 40.5143 54.7448 40.7571 54.6426L62.5915 45.2952L78.6864 38.4057C78.8666 38.4135 79.0369 38.4907 79.1618 38.6211C79.2867 38.7515 79.3566 38.9252 79.357 39.106L79.357 81.6835Z" fill="#3F3D56"/>
<path d="M36.8568 25.6538H21.4883C21.1922 25.6532 20.9084 25.535 20.6992 25.3249C20.4901 25.1148 20.3726 24.8301 20.3726 24.5333C20.3726 24.2365 20.4901 23.9518 20.6992 23.7417C20.9084 23.5316 21.1922 23.4134 21.4883 23.4128H36.8568C37.1529 23.4134 37.4366 23.5316 37.6458 23.7417C37.855 23.9518 37.9725 24.2365 37.9725 24.5333C37.9725 24.8301 37.855 25.1148 37.6458 25.3249C37.4366 25.535 37.1529 25.6532 36.8568 25.6538Z" fill="white"/>
<path d="M28.8931 20.8918H21.4883C21.1919 20.8918 20.9076 20.7738 20.698 20.5636C20.4884 20.3535 20.3706 20.0685 20.3706 19.7713C20.3706 19.4742 20.4884 19.1892 20.698 18.9791C20.9076 18.7689 21.1919 18.6509 21.4883 18.6509H28.8931C29.1895 18.6509 29.4738 18.7689 29.6834 18.9791C29.893 19.1892 30.0108 19.4742 30.0108 19.7713C30.0108 20.0685 29.893 20.3535 29.6834 20.5636C29.4738 20.7738 29.1895 20.8918 28.8931 20.8918Z" fill="white"/>
<path d="M51.5221 36.8584H28.0503C27.7539 36.8584 27.4696 36.7403 27.26 36.5302C27.0504 36.32 26.9326 36.0351 26.9326 35.7379C26.9326 35.4407 27.0504 35.1557 27.26 34.9456C27.4696 34.7355 27.7539 34.6174 28.0503 34.6174H51.5221C51.8186 34.6174 52.1029 34.7355 52.3125 34.9456C52.5221 35.1557 52.6398 35.4407 52.6398 35.7379C52.6398 36.0351 52.5221 36.32 52.3125 36.5302C52.1029 36.7403 51.8186 36.8584 51.5221 36.8584Z" fill="white"/>
<path d="M51.5221 42.0405H28.0503C27.9034 42.0407 27.7578 42.012 27.622 41.9558C27.4862 41.8996 27.3627 41.8171 27.2587 41.713C27.1547 41.6089 27.0722 41.4853 27.0159 41.3493C26.9596 41.2132 26.9307 41.0673 26.9307 40.92C26.9307 40.7727 26.9596 40.6269 27.0159 40.4908C27.0722 40.3547 27.1547 40.2311 27.2587 40.127C27.3627 40.023 27.4862 39.9405 27.622 39.8843C27.7578 39.8281 27.9034 39.7993 28.0503 39.7996H51.5221C51.6691 39.7993 51.8146 39.8281 51.9505 39.8843C52.0863 39.9405 52.2097 40.023 52.3137 40.127C52.4177 40.2311 52.5002 40.3547 52.5565 40.4908C52.6128 40.6269 52.6418 40.7727 52.6418 40.92C52.6418 41.0673 52.6128 41.2132 52.5565 41.3493C52.5002 41.4853 52.4177 41.6089 52.3137 41.713C52.2097 41.8171 52.0863 41.8996 51.9505 41.9558C51.8146 42.012 51.6691 42.0407 51.5221 42.0405Z" fill="white"/>
<path d="M119.83 108.937H74.9884C74.9432 108.937 74.8998 108.919 74.8678 108.887C74.8358 108.855 74.8179 108.811 74.8179 108.766C74.8179 108.72 74.8358 108.677 74.8678 108.645C74.8998 108.613 74.9432 108.595 74.9884 108.595H119.83C119.875 108.595 119.918 108.613 119.95 108.645C119.982 108.677 120 108.72 120 108.766C120 108.811 119.982 108.855 119.95 108.887C119.918 108.919 119.875 108.937 119.83 108.937Z" fill="#CBCBCB"/>
<path d="M41.5702 108.937H25.0318C24.9866 108.937 24.9432 108.919 24.9113 108.887C24.8793 108.855 24.8613 108.811 24.8613 108.766C24.8613 108.72 24.8793 108.677 24.9113 108.645C24.9432 108.613 24.9866 108.595 25.0318 108.595H41.5702C41.6154 108.595 41.6588 108.613 41.6908 108.645C41.7227 108.677 41.7407 108.72 41.7407 108.766C41.7407 108.811 41.7227 108.855 41.6908 108.887C41.6588 108.919 41.6154 108.937 41.5702 108.937Z" fill="#CBCBCB"/>
<path d="M31.1132 103.652C31.7447 103.638 32.3618 103.46 32.9051 103.137C33.4485 102.814 33.8996 102.356 34.2152 101.808C35.0103 100.388 34.7681 98.6365 34.5019 97.0303L33.7161 92.2793L32.3555 94.2443C31.3769 95.6574 30.3797 97.1109 29.962 98.7795C29.5443 100.448 29.8243 102.404 31.0986 103.556" fill="#E6E6E6"/>
<path d="M33.2852 108.942C32.5873 107.654 31.8777 106.35 31.491 104.927C31.1476 103.664 31.0701 102.332 31.4581 101.069C31.6643 100.4 31.9855 99.7715 32.4071 99.2128C32.5171 99.0671 32.736 99.246 32.6266 99.3911C31.8979 100.36 31.4948 101.535 31.4754 102.748C31.4571 104.096 31.865 105.403 32.4144 106.62C32.7463 107.355 33.1299 108.066 33.5142 108.775C33.5352 108.806 33.5437 108.844 33.5379 108.88C33.5322 108.917 33.5126 108.95 33.4832 108.973C33.4528 108.995 33.4151 109.004 33.3781 108.998C33.3411 108.993 33.3079 108.972 33.2857 108.942L33.2852 108.942Z" fill="#F2F2F2"/>
</g>
<defs>
<clipPath id="clip0_1_3955">
<rect width="120" height="120" fill="white"/>
</clipPath>
</defs>
</svg>
