<svg width="120" height="120" viewBox="0 0 120 120" fill="none" xmlns="http://www.w3.org/2000/svg">
<path d="M60.4544 105C78.0506 105 92.3151 102.47 92.3151 99.348C92.3151 96.2264 78.0506 93.6958 60.4544 93.6958C42.8583 93.6958 28.5938 96.2264 28.5938 99.348C28.5938 102.47 42.8583 105 60.4544 105Z" fill="#AE978A"/>
<path d="M33.9019 46.1093C33.9019 37.875 45.9398 31.1997 60.7895 31.1997C75.6391 31.1997 87.6771 37.875 87.6771 46.1093" stroke="#AE978A" stroke-width="2" stroke-miterlimit="10"/>
<path d="M69.2434 36.9403H47.3689C43.0424 29.6269 43.0424 22.3134 47.3689 15H69.2434C63.194 22.3134 63.194 29.6269 69.2434 36.9403Z" fill="#E6E6E6"/>
<path d="M62.8202 17.6118H50.4941V19.179H62.8202V17.6118Z" fill="#2CB543"/>
<path d="M62.82 22.7488H46.501V23.2712H62.82V22.7488Z" fill="white"/>
<path d="M62.82 25.4478H46.501V25.9701H62.82V25.4478Z" fill="white"/>
<path d="M62.82 28.1467H46.501V28.6691H62.82V28.1467Z" fill="white"/>
<path d="M77.9771 85.5063C77.9771 92.4646 82.3292 98.0952 87.7077 98.0952L77.9771 85.5063Z" fill="#AE978A"/>
<path d="M87.708 98.0953C87.708 91.0588 92.5648 85.365 98.5668 85.365L87.708 98.0953Z" fill="#2CB543"/>
<path d="M81.5029 86.1372C81.5029 92.7468 84.2782 98.0952 87.708 98.0952L81.5029 86.1372Z" fill="#2CB543"/>
<path d="M87.708 98.0953C87.708 89.1043 93.3217 81.8289 100.259 81.8289L87.708 98.0953Z" fill="#AE978A"/>
<path d="M85.6606 98.1839C85.6606 98.1839 87.0406 98.1413 87.4565 97.8443C87.8724 97.5472 89.5792 97.1926 89.6824 97.6689C89.7856 98.1453 91.7562 100.038 90.1982 100.051C88.6403 100.063 86.5782 99.8074 86.1631 99.5538C85.748 99.3002 85.6606 98.1839 85.6606 98.1839Z" fill="#FFF2E9"/>
<path opacity="0.2" d="M90.226 99.885C88.6681 99.8976 86.606 99.6416 86.1909 99.388C85.8748 99.1949 85.7489 98.5019 85.7067 98.1821C85.6775 98.1834 85.6606 98.1839 85.6606 98.1839C85.6606 98.1839 85.748 99.3002 86.1631 99.5538C86.5782 99.8074 88.6403 100.063 90.1982 100.051C90.648 100.047 90.8033 99.8867 90.7948 99.649C90.7323 99.7926 90.5608 99.8823 90.226 99.885Z" fill="black"/>
<path d="M55.7777 32.1393C55.9044 32.1976 56.0568 32.1107 56.1315 31.9927C56.4158 31.5433 55.8923 30.9638 56.0056 30.4439C56.0965 30.0273 56.5684 29.78 56.6649 29.3647C56.7587 28.9612 56.4697 28.5064 56.665 28.1412C56.818 27.8552 57.2002 27.7799 57.5199 27.83C57.8397 27.8801 58.1432 28.0211 58.4662 28.0409C58.8967 28.0672 59.307 27.8771 59.7279 27.783C60.1489 27.6888 60.6623 27.7257 60.9099 28.0798C61.2278 28.5345 60.9053 29.1677 61.016 29.7119C61.1039 30.1441 61.4646 30.5019 61.4723 30.9428C61.4751 31.0996 61.0643 30.9733 61.0861 31.1285C61.108 31.2837 60.9138 31.1471 61.069 31.1286C61.1324 31.1131 61.1892 31.0777 61.2312 31.0276C61.2732 30.9775 61.2982 30.9153 61.3026 30.85C61.321 30.7207 61.5633 30.6776 61.5605 30.547C61.5539 30.241 62.1055 30.4474 62.1963 30.1552C62.4052 29.474 62.3624 28.7401 62.0756 28.0881C61.9519 27.8097 61.7834 27.5462 61.7238 27.2474C61.6427 26.8417 61.7702 26.4061 61.6366 26.0146C61.4565 25.487 60.8605 25.2181 60.3072 25.1635C59.7539 25.1088 59.1916 25.2066 58.6415 25.1261C58.1486 25.0539 57.6715 24.8397 57.1744 24.8707C56.5779 24.908 56.0589 25.2934 55.6454 25.7263C55.232 26.1591 54.8812 26.6569 54.4116 27.0276C54.2679 27.1269 54.1352 27.2414 54.016 27.3692C53.7769 27.6616 53.7526 28.078 53.8191 28.4503C53.8857 28.8225 54.0304 29.1776 54.0916 29.5507C54.149 29.9014 54.1313 30.2597 54.156 30.6142C54.1808 30.9687 54.2541 31.334 54.467 31.6181C54.5522 31.7341 54.6628 31.8291 54.7901 31.8959C54.9175 31.9626 55.0584 31.9993 55.202 32.0032C55.3016 32.0055 55.3856 31.9158 55.4861 31.9392C55.6116 31.9685 55.6663 32.0881 55.7777 32.1393Z" fill="#2F2E41"/>
<path d="M51.5205 57.903L51.8894 60.1761L52.6273 59.1716L52.2056 57.6387L51.5205 57.903Z" fill="#A0616A"/>
<path d="M51.9954 40.7229L51.4145 42.2584C51.4145 42.2584 50.8359 50.0794 50.8359 50.6609C50.8359 51.2424 51.2576 58.6958 51.4157 59.013C51.4157 59.013 52.1008 58.0086 52.9968 58.1672C53.8927 58.3258 53.5238 55.5241 53.5238 55.5241L54.367 48.5993L54.2089 45.1104L51.9954 40.7229Z" fill="#575A89"/>
<path opacity="0.1" d="M51.9954 40.7229L51.4145 42.2584C51.4145 42.2584 50.8359 50.0794 50.8359 50.6609C50.8359 51.2424 51.2576 58.6958 51.4157 59.013C51.4157 59.013 52.1008 58.0086 52.9968 58.1672C53.8927 58.3258 53.5238 55.5241 53.5238 55.5241L54.367 48.5993L54.2089 45.1104L51.9954 40.7229Z" fill="black"/>
<path d="M55.5791 32.2651C55.5791 32.2651 57.3183 36.7054 56.3169 37.5512C55.3156 38.397 61.9035 36.1239 61.9035 36.1239L61.7454 35.5425C61.7454 35.5425 59.5845 34.6967 60.6386 32.2651C61.6927 29.8334 55.5791 32.2651 55.5791 32.2651Z" fill="#A0616A"/>
<path opacity="0.1" d="M55.5791 32.2651C55.5791 32.2651 57.3183 36.7054 56.3169 37.5512C55.3156 38.397 61.9035 36.1239 61.9035 36.1239L61.7454 35.5425C61.7454 35.5425 59.5845 34.6967 60.6386 32.2651C61.6927 29.8334 55.5791 32.2651 55.5791 32.2651Z" fill="black"/>
<path d="M52.8386 91.5757C52.8386 91.5757 52.1007 91.3643 51.6791 91.8929C51.2575 92.4215 49.6764 93.743 49.6764 93.743C49.6764 93.743 46.6196 93.4259 46.198 94.9588C45.7764 96.4918 50.994 96.4918 52.2588 96.1218C53.5237 95.7518 53.7872 96.1218 53.7872 96.1218C53.7872 96.1218 57.6873 96.439 57.6873 95.8046C57.6873 95.1703 57.3183 93.003 57.3183 93.003L52.8386 91.5757Z" fill="#575A89"/>
<path d="M65.2237 95.1174L64.5386 97.2319C64.5386 97.2319 62.4832 100.086 63.6427 100.668C64.8021 101.249 68.913 101.831 68.913 100.298V97.3905C68.913 97.3905 68.4913 95.3289 68.0697 95.1174C67.6481 94.906 65.2237 95.1174 65.2237 95.1174Z" fill="#575A89"/>
<path d="M53.5843 57.1295C53.5843 57.1295 51.3623 59.066 51.415 59.3303C51.4677 59.5946 52.5217 76.5631 52.5217 76.5631L53.1015 87.5583C53.1015 87.5583 52.3636 90.1486 52.7326 90.73C53.1015 91.3115 52.2055 91.4701 52.2055 91.4701C52.2055 91.4701 56.0001 94.9061 57.5812 93.426L59.0569 74.2372L63.1151 88.1927C63.1151 88.1927 63.8002 95.5933 64.5907 95.5933C65.3813 95.5933 68.5962 95.7519 68.5435 95.329C68.4908 94.9061 68.7016 91.6815 68.3327 89.7785C67.9637 87.8755 65.4867 72.81 65.4867 72.81C65.4867 72.81 65.2737 59.8945 65.8282 58.6873C66.3826 57.4801 65.5394 56.2114 65.5394 56.2114L61.8502 54.7842L57.4231 55.3128L53.5843 57.1295Z" fill="#2F2E41"/>
<path d="M58.0559 34.0622C60.0934 34.0622 61.7451 32.4056 61.7451 30.3619C61.7451 28.3183 60.0934 26.6616 58.0559 26.6616C56.0184 26.6616 54.3667 28.3183 54.3667 30.3619C54.3667 32.4056 56.0184 34.0622 58.0559 34.0622Z" fill="#A0616A"/>
<path d="M67.0153 38.3441C66.8331 37.8269 66.5259 37.363 66.1212 36.994C65.7166 36.625 65.227 36.3624 64.6964 36.2296C63.6333 35.9614 62.5935 35.6078 61.5869 35.1724C61.5869 35.1724 57.845 36.9697 57.1072 36.9697C56.3693 36.9697 56.3693 36.4939 56.3693 36.4939C56.3693 36.4939 54.472 38.5026 53.4707 38.7141C52.4693 38.9255 50.9936 41.41 51.5206 42.7844C51.8786 43.6656 52.3969 44.4722 53.049 45.1632C53.049 45.1632 52.8382 52.5638 53.5234 53.9382C53.5234 53.9382 51.8369 57.1628 53.418 57.3742C54.999 57.5857 61.0599 56.8456 62.114 57.5857C63.168 58.3257 65.118 57.4271 65.3815 58.4314C65.6451 59.4358 66.2248 59.6473 66.2248 59.6473C66.2248 59.6473 67.1207 58.22 66.5937 57.3742C66.0667 56.5284 67.0153 38.3441 67.0153 38.3441Z" fill="#575A89"/>
<path d="M63.1157 58.2202L62.2725 58.7488C62.2725 58.7488 63.1684 61.8677 63.5373 61.9734C63.9063 62.0791 64.7746 59.3066 64.7746 59.3066L63.1157 58.2202Z" fill="#A0616A"/>
<path d="M55.1454 31.7692C55.2721 31.8274 55.4244 31.7406 55.4991 31.6226C55.7835 31.1732 55.2599 30.5937 55.3733 30.0737C55.4641 29.6572 55.9361 29.4099 56.0326 28.9946C56.1263 28.5911 55.8374 28.1362 56.0327 27.7711C56.1857 27.4851 56.5678 27.4098 56.8876 27.4599C57.2074 27.51 57.5109 27.651 57.8339 27.6708C58.2644 27.6971 58.6747 27.507 59.0956 27.4128C59.5165 27.3187 60.0299 27.3555 60.2776 27.7097C60.5955 28.1644 60.273 28.7976 60.3837 29.3418C60.4716 29.7739 61.4732 30.0772 61.564 29.785C61.7729 29.1039 61.7301 28.37 61.4433 27.7179C61.3196 27.4396 61.1511 27.1761 61.0914 26.8773C61.0104 26.4715 61.1379 26.036 61.0043 25.6445C60.8241 25.1169 60.2282 24.848 59.6749 24.7934C59.1216 24.7387 58.5593 24.8365 58.0091 24.756C57.5163 24.6838 57.0392 24.4696 56.5421 24.5006C55.9456 24.5379 55.4266 24.9233 55.0131 25.3561C54.5996 25.789 54.2489 26.2868 53.7793 26.6575C53.6355 26.7568 53.5029 26.8713 53.3837 26.9991C53.1445 27.2915 53.1203 27.7079 53.1868 28.0801C53.2533 28.4524 53.3981 28.8074 53.4592 29.1806C53.5167 29.5313 53.499 29.8896 53.5237 30.2441C53.5485 30.5986 53.6218 30.9639 53.8347 31.2479C53.9199 31.364 54.0304 31.459 54.1578 31.5258C54.2852 31.5925 54.4261 31.6292 54.5697 31.6331C54.6692 31.6354 54.7533 31.5457 54.8538 31.5691C54.9793 31.5983 55.0339 31.7179 55.1454 31.7692Z" fill="#2F2E41"/>
<path opacity="0.1" d="M64.9334 39.2693L66.6463 38.3442C66.6463 38.3442 70.8098 48.2822 69.8085 51.031C68.8071 53.7798 64.9598 59.436 64.9598 59.436C64.9598 59.436 61.903 58.8017 62.2192 58.1673C62.5354 57.533 64.5909 53.4626 64.749 52.934C64.9071 52.4054 65.9611 48.9694 65.4868 48.5994C65.0125 48.2293 64.0902 39.6393 64.0902 39.6393L64.9334 39.2693Z" fill="black"/>
<path d="M64.9073 37.7627L67.0154 38.3442C67.0154 38.3442 71.179 48.2821 70.1776 51.0309C69.1763 53.7797 65.3289 59.4359 65.3289 59.4359C65.3289 59.4359 62.2722 58.8016 62.5884 58.1673C62.9046 57.5329 64.96 53.4626 65.1181 52.934C65.2762 52.4053 66.3303 48.9693 65.856 48.5993C65.3816 48.2293 63.1154 39.0842 63.1154 39.0842L64.9073 37.7627Z" fill="#575A89"/>
<path d="M87.6771 46.1094C87.6771 54.7425 75.6391 61.7411 60.7895 61.7411C45.9398 61.7411 33.9019 54.7425 33.9019 46.1094" stroke="#AE978A" stroke-width="2" stroke-miterlimit="10"/>
<path d="M82.7865 61.9629C76.7764 65.2141 68.9344 67.1815 60.356 67.1815C52.1311 67.1815 44.5831 65.3729 38.6777 62.3582" stroke="#AE978A" stroke-width="2" stroke-miterlimit="10"/>
<path d="M74.2168 27.1636C85.6546 30.1789 93.8005 36.8116 94.558 44.6234" stroke="#AE978A" stroke-width="2" stroke-miterlimit="10"/>
<path d="M27.7461 39.546C29.6733 35.9932 33.194 32.8666 37.8067 30.4646" stroke="#AE978A" stroke-width="2" stroke-miterlimit="10"/>
<path d="M51.3921 77.5768H73.2666C77.5931 70.2633 77.5931 62.9499 73.2666 55.6365H51.3921C57.4415 62.9499 57.4415 70.2633 51.3921 77.5768Z" fill="#F2F2F2"/>
<path d="M70.956 59.8157H58.6299V61.3828H70.956V59.8157Z" fill="#2CB543"/>
<path d="M73.9939 64.5171H57.6748V65.0395H73.9939V64.5171Z" fill="white"/>
<path d="M73.9939 67.2161H57.6748V67.7385H73.9939V67.2161Z" fill="white"/>
<path d="M42.1193 62.6847H20.2448C15.9184 55.3713 15.9184 48.0578 20.2448 40.7444H42.1193C36.0699 48.0578 36.0699 55.3713 42.1193 62.6847Z" fill="#F2F2F2"/>
<path d="M35.0014 43.3564H22.6753V44.9236H35.0014V43.3564Z" fill="#2CB543"/>
<path d="M36.3035 47.7095H19.9844V48.2319H36.3035V47.7095Z" fill="white"/>
<path d="M36.3035 50.4087H19.9844V50.9311H36.3035V50.4087Z" fill="white"/>
<path d="M36.3035 53.1077H19.9844V53.6301H36.3035V53.1077Z" fill="white"/>
<path d="M36.3035 55.8066H19.9844V56.329H36.3035V55.8066Z" fill="white"/>
<path d="M77.8809 52.5782H99.7554C104.082 45.2648 104.082 37.9514 99.7554 30.6379H77.8809C83.9303 37.9514 83.9303 45.2648 77.8809 52.5782Z" fill="#F2F2F2"/>
<path d="M97.1845 32.8145H84.8584V34.3816H97.1845V32.8145Z" fill="#2CB543"/>
<path d="M99.8747 37.168H83.5557V37.6904H99.8747V37.168Z" fill="white"/>
</svg>
