<svg width="120" height="120" viewBox="0 0 120 120" fill="none" xmlns="http://www.w3.org/2000/svg">
<path d="M43.7341 47.0252L32.9922 40.9404L26.7904 51.4796L37.5322 57.5644L43.7341 47.0252Z" fill="white"/>
<path d="M98.8741 41.667C103.907 41.667 107.987 37.664 107.987 32.7261C107.987 27.7881 103.907 23.7852 98.8741 23.7852C93.8412 23.7852 89.7612 27.7881 89.7612 32.7261C89.7612 37.664 93.8412 41.667 98.8741 41.667Z" fill="#FF8733"/>
<path d="M93.302 20.3279C94.4379 23.0604 97.3285 24.4874 97.3285 24.4874C97.3285 24.4874 98.3776 21.484 97.2417 18.7515C96.1059 16.019 93.2152 14.592 93.2152 14.592C93.2152 14.592 92.1662 17.5954 93.302 20.3279Z" fill="#AE978A"/>
<path d="M94.3709 19.5812C96.7673 21.3645 97.4244 24.4732 97.4244 24.4732C97.4244 24.4732 94.1961 24.6905 91.7997 22.9072C89.4032 21.1239 88.7461 18.0152 88.7461 18.0152C88.7461 18.0152 91.9744 17.7979 94.3709 19.5812Z" fill="#FF8733"/>
<path d="M97.7845 18.7659C96.6715 21.5075 97.7456 24.5023 97.7456 24.5023C97.7456 24.5023 100.624 23.0522 101.737 20.3106C102.85 17.569 101.776 14.5742 101.776 14.5742C101.776 14.5742 98.8975 16.0243 97.7845 18.7659Z" fill="#AE978A"/>
<path d="M99.0821 18.9553C99.5483 21.8707 97.8245 24.5575 97.8245 24.5575C97.8245 24.5575 95.3449 22.5176 94.8788 19.6022C94.4127 16.6869 96.1365 14 96.1365 14C96.1365 14 98.616 16.0399 99.0821 18.9553Z" fill="#FF8733"/>
<path d="M98.373 36.3805C100.959 36.3805 103.056 34.3234 103.056 31.7858C103.056 29.2483 100.959 27.1912 98.373 27.1912C95.7866 27.1912 93.6899 29.2483 93.6899 31.7858C93.6899 34.3234 95.7866 36.3805 98.373 36.3805Z" fill="#F2F2F2"/>
<path d="M96.4058 31.9947C97.2446 31.9947 97.9246 31.3275 97.9246 30.5046C97.9246 29.6816 97.2446 29.0144 96.4058 29.0144C95.567 29.0144 94.887 29.6816 94.887 30.5046C94.887 31.3275 95.567 31.9947 96.4058 31.9947Z" fill="#AE978A"/>
<path d="M112.215 87.8721C111.665 87.8721 111.126 87.7119 110.668 87.4117C110.211 87.1115 109.854 86.6848 109.643 86.1856C109.432 85.6864 109.377 85.1371 109.484 84.6072C109.592 84.0772 109.857 83.5904 110.246 83.2084C110.636 82.8263 111.132 82.5661 111.672 82.4607C112.212 82.3553 112.772 82.4094 113.281 82.6162C113.79 82.8229 114.225 83.1731 114.531 83.6224C114.837 84.0716 115 84.5998 115 85.1402C114.999 85.8645 114.705 86.5589 114.183 87.071C113.661 87.5832 112.954 87.8713 112.215 87.8721ZM112.215 82.6566C111.715 82.6566 111.225 82.8022 110.809 83.0751C110.393 83.348 110.068 83.7359 109.877 84.1897C109.685 84.6435 109.635 85.1429 109.733 85.6247C109.83 86.1064 110.071 86.549 110.425 86.8963C110.779 87.2437 111.231 87.4802 111.722 87.576C112.213 87.6719 112.722 87.6227 113.184 87.4347C113.647 87.2467 114.042 86.9284 114.32 86.52C114.598 86.1115 114.747 85.6314 114.747 85.1402C114.746 84.4817 114.479 83.8504 114.005 83.3848C113.53 82.9192 112.887 82.6573 112.215 82.6566Z" fill="#AE978A"/>
<path d="M37.7935 59.6834C37.2428 59.6834 36.7045 59.5232 36.2465 59.223C35.7886 58.9228 35.4317 58.4961 35.221 57.9969C35.0102 57.4977 34.9551 56.9484 35.0625 56.4185C35.17 55.8885 35.4352 55.4017 35.8246 55.0197C36.214 54.6376 36.7102 54.3774 37.2503 54.272C37.7904 54.1666 38.3503 54.2207 38.8591 54.4274C39.3679 54.6342 39.8028 54.9844 40.1087 55.4336C40.4147 55.8829 40.578 56.4111 40.578 56.9514C40.5772 57.6757 40.2836 58.3702 39.7615 58.8823C39.2395 59.3945 38.5318 59.6826 37.7935 59.6834ZM37.7935 54.4678C37.2929 54.4678 36.8035 54.6135 36.3872 54.8864C35.9709 55.1593 35.6464 55.5472 35.4549 56.001C35.2633 56.4548 35.2131 56.9542 35.3108 57.436C35.4085 57.9177 35.6496 58.3603 36.0036 58.7076C36.3576 59.0549 36.8086 59.2915 37.2997 59.3873C37.7907 59.4831 38.2997 59.434 38.7622 59.246C39.2248 59.058 39.6201 58.7397 39.8983 58.3312C40.1764 57.9228 40.3249 57.4426 40.3249 56.9514C40.3241 56.293 40.0572 55.6617 39.5826 55.1961C39.1081 54.7305 38.4647 54.4686 37.7935 54.4678Z" fill="#AE978A"/>
<path d="M104.69 34.0574L89.884 50.2703C90.68 50.8762 91.3404 51.6365 91.8239 52.5037C92.3074 53.371 92.6038 54.3266 92.6945 55.3111C92.7853 56.2956 92.6685 57.2879 92.3513 58.2261C92.0342 59.1644 91.5236 60.0286 90.8513 60.7648C90.179 61.501 89.3593 62.0936 88.4435 62.5055C87.5276 62.9174 86.5351 63.1399 85.5277 63.1591C84.5204 63.1784 83.5198 62.9939 82.5883 62.6172C81.6568 62.2405 80.8143 61.6797 80.1133 60.9697L59.49 83.5533C65.4361 88.0873 72.7549 90.5436 80.2855 90.5325C99.0384 90.5325 114.241 75.6172 114.241 57.2181C114.252 48.5723 110.825 40.2631 104.69 34.0574Z" fill="white"/>
<path d="M85.6362 60.6769C88.0827 60.6769 90.066 58.731 90.066 56.3307C90.066 53.9303 88.0827 51.9844 85.6362 51.9844C83.1896 51.9844 81.2063 53.9303 81.2063 56.3307C81.2063 58.731 83.1896 60.6769 85.6362 60.6769Z" fill="#F2F2F2"/>
<path d="M62.4701 27.1319C64.8314 27.1319 66.7457 25.2538 66.7457 22.9371C66.7457 20.6203 64.8314 18.7422 62.4701 18.7422C60.1088 18.7422 58.1946 20.6203 58.1946 22.9371C58.1946 25.2538 60.1088 27.1319 62.4701 27.1319Z" fill="#2F2E41"/>
<path d="M54.4299 52.5864L55.4218 71.5629C55.4218 71.5629 55.2565 85.1871 56.2484 85.3493C57.2402 85.5114 59.0587 86.6468 59.5546 85.8358C60.0505 85.0249 62.5302 60.0473 62.5302 60.0473C62.5302 60.0473 63.1914 85.998 65.1752 86.1602C67.1589 86.3224 69.4733 85.3493 69.8039 85.5114C70.1345 85.6736 69.9692 53.073 69.9692 53.073L54.4299 52.5864Z" fill="#2F2E41"/>
<path d="M57.4056 85.1871C57.4056 85.1871 56.2484 85.1871 55.9178 85.6737C55.5871 86.1603 54.4299 88.5931 54.4299 88.5931C54.4299 88.5931 52.2809 90.5293 54.5953 90.6915C56.9096 90.8537 58.0668 90.3773 58.0668 90.0529C58.0668 89.7285 58.0668 88.9175 58.5627 88.7553C59.0587 88.5931 59.5546 87.7822 59.5546 87.4578C59.5546 87.1334 59.0587 85.0249 57.4056 85.1871Z" fill="#2F2E41"/>
<path d="M66.3324 85.3493C66.3324 85.3493 65.5059 88.5932 66.3324 88.7554C67.159 88.9175 67.6549 89.2419 67.8203 89.7285C67.9856 90.2151 69.6387 90.7777 70.9612 90.6155C72.2837 90.4533 72.9449 89.5663 72.449 89.0797C71.953 88.5932 69.4734 85.8359 69.3081 85.3493C69.1427 84.8627 66.3324 85.3493 66.3324 85.3493Z" fill="#2F2E41"/>
<path d="M60.5466 25.9871C60.5466 25.9871 60.2159 28.42 59.5547 28.7444C58.8934 29.0688 59.8853 30.8529 59.8853 30.8529L62.8609 31.3395L65.5059 29.231C65.5059 29.231 65.01 26.1493 65.01 25.9871C65.01 25.8249 60.5466 25.9871 60.5466 25.9871Z" fill="#9F616A"/>
<path opacity="0.1" d="M60.5466 25.9871C60.5466 25.9871 60.2159 28.42 59.5547 28.7444C58.8934 29.0688 59.8853 30.8529 59.8853 30.8529L62.8609 31.3395L65.5059 29.231C65.5059 29.231 65.01 26.1493 65.01 25.9871C65.01 25.8249 60.5466 25.9871 60.5466 25.9871Z" fill="black"/>
<path d="M62.3649 28.0955C64.5561 28.0955 66.3324 26.3527 66.3324 24.2029C66.3324 22.0531 64.5561 20.3103 62.3649 20.3103C60.1738 20.3103 58.3975 22.0531 58.3975 24.2029C58.3975 26.3527 60.1738 28.0955 62.3649 28.0955Z" fill="#9F616A"/>
<path d="M62.2823 30.7716C62.2823 30.7716 60.6292 28.0143 59.8026 28.1765C58.9761 28.3387 56.4138 28.7442 56.0831 28.582C55.7525 28.4198 53.6035 35.8806 53.6035 35.8806C53.6035 35.8806 51.2891 50.6401 52.7769 52.4242C54.2647 54.2083 59.3894 53.2352 60.0506 55.0193C60.7119 56.8034 71.1265 54.0462 71.1265 53.073C71.1265 52.0998 71.2918 37.1782 71.4571 36.0428C71.6224 34.9075 69.9693 28.9064 69.9693 28.9064C69.9693 28.9064 66.0845 27.8521 65.4232 28.1765C64.762 28.5009 64.4314 29.474 62.2823 30.7716Z" fill="#575A88"/>
<path d="M56.4138 29.0687L56.0831 28.5821C56.0831 28.5821 52.6116 29.0687 51.6197 28.9065C50.6279 28.7443 47.6523 29.0687 47.6523 29.0687C47.6523 29.0687 48.3135 27.2845 48.9747 27.1223C49.636 26.9602 50.4626 26.4736 50.4626 26.4736C50.4626 26.4736 48.8094 24.0407 50.4626 23.2297C50.4626 23.2297 42.8582 26.1492 42.3623 28.9065C41.8664 31.6637 53.9341 35.8807 53.9341 35.8807L56.4138 29.0687Z" fill="#575A88"/>
<path d="M68.6467 29.2308L69.9692 28.9064L76.5817 29.5551L74.4326 27.2844C74.4326 27.2844 75.7551 25.6625 74.9286 24.8516C74.9286 24.8516 83.6901 28.0954 82.6982 30.2039C81.7063 32.3124 71.2917 36.0428 70.7958 36.205C70.2998 36.3672 68.6467 29.2308 68.6467 29.2308Z" fill="#575A88"/>
<path d="M51.3632 23.6664C51.7724 23.7462 52.1221 23.997 52.457 24.2411C52.7816 24.4687 53.093 24.7141 53.3895 24.976C54.893 26.355 55.4457 28.4357 55.9239 30.3997C55.5834 30.6811 55.0275 30.4471 54.7991 30.0722C54.5706 29.6974 54.5548 29.2396 54.465 28.8118C54.3752 28.384 54.1557 27.9242 53.7314 27.792C53.8207 28.0636 53.6053 28.3585 53.3361 28.4663C53.0669 28.5741 52.7637 28.5443 52.4747 28.5128C52.3403 28.5056 52.2081 28.476 52.0838 28.4254C51.8595 28.319 51.7284 28.0901 51.6063 27.877C51.2881 27.3215 50.9381 26.7842 50.558 26.2676C50.4718 26.1341 50.3595 26.0187 50.2275 25.9281C49.698 25.611 49.1294 25.1962 49.393 24.4433C49.6107 23.8218 50.7854 23.5538 51.3632 23.6664Z" fill="#9F616A"/>
<path d="M73.3423 24.6318C72.7473 24.6609 72.2343 25.0408 71.7987 25.4394C69.9753 27.1191 68.8013 29.3666 68.4763 31.7997C68.4551 31.9628 68.4485 32.1548 68.5758 32.2618C68.719 32.3821 68.955 32.3109 69.0726 32.1664C69.1757 32.0108 69.2402 31.8337 69.2609 31.6493C69.3765 31.0977 69.5737 30.5657 69.8461 30.0701C69.9859 29.816 70.1802 29.5484 70.4709 29.5034C70.9039 29.4364 71.2277 29.8863 71.6412 30.0287C72.1294 30.1969 72.6763 29.8958 72.973 29.48C73.2697 29.0642 73.3857 28.5545 73.5492 28.073C73.7127 27.5914 73.9551 27.0976 74.4012 26.8408C74.8763 26.5673 75.97 26.3773 75.5062 25.6097C75.1692 25.052 73.9648 24.6014 73.3423 24.6318Z" fill="#9F616A"/>
<path d="M58.0677 22.049C58.0677 22.049 57.0134 19.3596 58.5421 18.4804L58.9638 19.6699C58.9638 19.6699 62.812 17.3942 63.8136 17.9114L62.8647 19.1527C62.8647 19.1527 67.3455 19.1527 67.6617 20.8595L66.0803 20.9112C66.0803 20.9112 67.7672 21.9973 67.8199 23.7558L64.4462 23.9627L66.0803 24.8936C66.0803 24.8936 59.9654 25.7211 58.4894 23.342L58.0677 22.049Z" fill="#2F2E41"/>
<path d="M47.9 25.095L50.3797 23.1487C50.3797 23.1487 49.5531 25.5816 50.3797 26.3925L47.2388 27.0413L47.9 25.095Z" fill="#575A88"/>
<path d="M76.8296 26.2303L74.6805 24.6084C74.6805 24.6084 75.0112 26.7169 74.3499 27.2035C73.6887 27.6901 76.1683 27.8522 76.1683 27.8522L76.8296 26.2303Z" fill="#575A88"/>
<path d="M26.7359 95.0179C31.7688 95.0179 35.8488 91.0149 35.8488 86.0769C35.8488 81.139 31.7688 77.136 26.7359 77.136C21.703 77.136 17.623 81.139 17.623 86.0769C17.623 91.0149 21.703 95.0179 26.7359 95.0179Z" fill="#FF8733"/>
<path d="M18.088 75.5125C19.9049 77.8642 23.0732 78.5098 23.0732 78.5098C23.0732 78.5098 23.2956 75.3425 21.4787 72.9908C19.6617 70.639 16.4935 69.9934 16.4935 69.9934C16.4935 69.9934 16.271 73.1607 18.088 75.5125Z" fill="#AE978A"/>
<path d="M18.9238 74.5202C21.7086 75.6354 23.1621 78.4719 23.1621 78.4719C23.1621 78.4719 20.1007 79.5003 17.3159 78.3851C14.5312 77.2699 13.0776 74.4334 13.0776 74.4334C13.0776 74.4334 16.1391 73.405 18.9238 74.5202Z" fill="#FF8733"/>
<path d="M22.0067 72.8672C21.6536 75.7978 23.48 78.4186 23.48 78.4186C23.48 78.4186 25.8789 76.288 26.2321 73.3573C26.5852 70.4267 24.7588 67.8059 24.7588 67.8059C24.7588 67.8059 22.3599 69.9366 22.0067 72.8672Z" fill="#AE978A"/>
<path d="M23.3103 72.7211C24.5284 75.4193 23.5708 78.4519 23.5708 78.4519C23.5708 78.4519 20.6382 77.1099 19.4201 74.4117C18.2019 71.7135 19.1595 68.6809 19.1595 68.6809C19.1595 68.6809 22.0921 70.0229 23.3103 72.7211Z" fill="#FF8733"/>
<path d="M23.2196 91.1322C25.806 91.1322 27.9026 89.0751 27.9026 86.5375C27.9026 84 25.806 81.9429 23.2196 81.9429C20.6333 81.9429 18.5366 84 18.5366 86.5375C18.5366 89.0751 20.6333 91.1322 23.2196 91.1322Z" fill="#F2F2F2"/>
<path d="M21.4431 89.4857C22.2819 89.4857 22.9619 88.8185 22.9619 87.9955C22.9619 87.1725 22.2819 86.5054 21.4431 86.5054C20.6043 86.5054 19.9243 87.1725 19.9243 87.9955C19.9243 88.8185 20.6043 89.4857 21.4431 89.4857Z" fill="#AE978A"/>
<path d="M62.6009 90.8526C67.6338 90.8526 71.7138 86.8496 71.7138 81.9116C71.7138 76.9737 67.6338 72.9707 62.6009 72.9707C57.568 72.9707 53.488 76.9737 53.488 81.9116C53.488 86.8496 57.568 90.8526 62.6009 90.8526Z" fill="#FF8733"/>
<path d="M58.6222 68.9361C59.4076 71.7848 62.0979 73.549 62.0979 73.549C62.0979 73.549 63.5148 70.6947 62.7293 67.846C61.9439 64.9974 59.2536 63.2332 59.2536 63.2332C59.2536 63.2332 57.8368 66.0875 58.6222 68.9361Z" fill="#AE978A"/>
<path d="M59.7762 68.3238C61.9314 70.3823 62.1947 73.5466 62.1947 73.5466C62.1947 73.5466 58.9636 73.3735 56.8084 71.315C54.6531 69.2566 54.3899 66.0923 54.3899 66.0923C54.3899 66.0923 57.621 66.2654 59.7762 68.3238Z" fill="#FF8733"/>
<path d="M63.2659 67.9259C61.8184 70.5127 62.5097 73.6142 62.5097 73.6142C62.5097 73.6142 65.548 72.5217 66.9955 69.9349C68.4431 67.3481 67.7517 64.2466 67.7517 64.2466C67.7517 64.2466 64.7135 65.3391 63.2659 67.9259Z" fill="#AE978A"/>
<path d="M64.5303 68.2701C64.6282 71.2196 62.5813 73.6785 62.5813 73.6785C62.5813 73.6785 60.3757 71.3555 60.2778 68.406C60.1799 65.4565 62.2268 62.9976 62.2268 62.9976C62.2268 62.9976 64.4324 65.3206 64.5303 68.2701Z" fill="#FF8733"/>
<path d="M62.2211 85.5128C64.8075 85.5128 66.9041 83.4557 66.9041 80.9181C66.9041 78.3806 64.8075 76.3235 62.2211 76.3235C59.6347 76.3235 57.5381 78.3806 57.5381 80.9181C57.5381 83.4557 59.6347 85.5128 62.2211 85.5128Z" fill="#F2F2F2"/>
<path d="M62.2212 79.8006C63.06 79.8006 63.74 79.1335 63.74 78.3105C63.74 77.4875 63.06 76.8203 62.2212 76.8203C61.3824 76.8203 60.7024 77.4875 60.7024 78.3105C60.7024 79.1335 61.3824 79.8006 62.2212 79.8006Z" fill="#AE978A"/>
<path d="M87.7879 90.604H40.325V90.8524H87.7879V90.604Z" fill="#2F2E41"/>
<path d="M106.963 38.9454C108.396 38.9454 109.558 38.0559 109.558 36.9586C109.558 35.8612 108.396 34.9717 106.963 34.9717C105.53 34.9717 104.368 35.8612 104.368 36.9586C104.368 38.0559 105.53 38.9454 106.963 38.9454Z" fill="#FF8733"/>
<path d="M35.2798 78.9353L39.4297 75.6746L35.2798 78.9353Z" fill="#AE978A"/>
<path d="M35.5454 81.4482C36.7996 80.4538 38.0979 79.5165 39.4404 78.6362L35.5454 81.4482Z" fill="#AE978A"/>
<path d="M38.3135 81.1833C39.7793 80.4995 41.1165 79.5772 42.2687 78.4556L38.3135 81.1833Z" fill="#AE978A"/>
<path d="M27.9213 94.5779C29.1795 94.5779 30.1995 93.5771 30.1995 92.3427C30.1995 91.1082 29.1795 90.1074 27.9213 90.1074C26.6631 90.1074 25.6431 91.1082 25.6431 92.3427C25.6431 93.5771 26.6631 94.5779 27.9213 94.5779Z" fill="#AE978A"/>
<path d="M16.5302 105C23.4505 105 29.0604 104.337 29.0604 103.519C29.0604 102.701 23.4505 102.038 16.5302 102.038C9.60997 102.038 4 102.701 4 103.519C4 104.337 9.60997 105 16.5302 105Z" fill="white"/>
<path d="M83.9908 90.7283C83.4401 90.7283 82.9017 90.5681 82.4438 90.2679C81.9859 89.9677 81.629 89.541 81.4183 89.0418C81.2075 88.5426 81.1524 87.9933 81.2598 87.4634C81.3672 86.9334 81.6324 86.4466 82.0219 86.0646C82.4113 85.6825 82.9074 85.4223 83.4476 85.3169C83.9877 85.2115 84.5476 85.2656 85.0564 85.4724C85.5652 85.6791 86.0001 86.0293 86.306 86.4786C86.612 86.9278 86.7753 87.456 86.7753 87.9964C86.7745 88.7207 86.4808 89.4151 85.9588 89.9272C85.4368 90.4394 84.729 90.7275 83.9908 90.7283ZM83.9908 85.5128C83.4901 85.5128 83.0007 85.6584 82.5844 85.9313C82.1682 86.2042 81.8437 86.5921 81.6521 87.0459C81.4605 87.4997 81.4104 87.9991 81.5081 88.4809C81.6057 88.9626 81.8468 89.4052 82.2009 89.7525C82.5549 90.0999 83.0059 90.3364 83.497 90.4322C83.988 90.5281 84.497 90.4789 84.9595 90.2909C85.422 90.1029 85.8174 89.7846 86.0955 89.3762C86.3737 88.9677 86.5222 88.4876 86.5222 87.9964C86.5214 87.3379 86.2545 86.7066 85.7799 86.241C85.3053 85.7754 84.6619 85.5135 83.9908 85.5128Z" fill="#AE978A"/>
</svg>
