<svg width="120" height="120" viewBox="0 0 120 120" fill="none" xmlns="http://www.w3.org/2000/svg">
<path d="M95.1194 98.5543C95.5171 98.5792 95.7368 98.082 95.4358 97.7924L95.4058 97.6727C95.4097 97.6632 95.4137 97.6536 95.4176 97.6441C95.6548 97.0747 96.3081 96.8052 96.8751 97.041C98.6682 97.7868 96.7751 99.5004 96.9174 100.66C96.9673 101.06 98.5257 101.082 98.4376 101.475C99.2663 99.6523 99.702 97.6622 99.7013 95.6609C99.7011 95.1581 99.6736 94.6553 99.6175 94.1537C99.5713 93.7435 99.5078 93.3358 99.4256 92.9318C98.981 90.7481 98.0191 88.6683 96.6322 86.9315C95.9656 86.5652 96.3722 85.9922 96.0362 85.3057C95.9156 85.058 94.8393 85.0525 94.7944 84.7811C94.8426 84.7874 95.5383 84.0605 95.3085 83.7011C95.1573 83.4647 95.2044 83.1635 95.3986 82.9613C95.4177 82.9415 95.4356 82.9206 95.4521 82.8981C96.026 82.1149 96.817 82.2513 97.2303 83.3152C98.1125 83.7628 98.1213 84.5055 97.5803 85.2201C97.2361 85.6747 97.189 86.2896 96.887 86.7763C96.9181 86.8163 96.9505 86.8551 96.9816 86.8951C97.5518 87.6304 98.0451 88.4207 98.461 89.2511C98.3432 88.3281 98.5163 87.2161 98.8116 86.4992C99.1503 85.6765 99.7875 84.9844 100.346 84.2728C101.012 83.4229 102.369 83.8086 102.487 84.8847C102.488 84.895 102.489 84.9053 102.49 84.9157C102.408 84.9625 102.327 85.0124 102.248 85.065C101.798 85.3647 101.954 86.067 102.487 86.1496L102.499 86.1514C102.47 86.4504 101.415 87.3921 101.34 87.6836C102.054 90.4545 101.52 90.8203 99.3257 90.8667L99.2106 91.0317C99.4185 91.6332 99.5859 92.2491 99.7115 92.8729C99.8298 93.452 99.9121 94.0373 99.9583 94.6252C100.016 95.3668 100.011 96.1123 99.9491 96.8528L99.9528 96.8265C100.11 96.011 100.55 95.2491 101.189 94.721C102.141 93.934 103.486 93.6438 104.513 93.011C105.007 92.7064 105.641 93.0996 105.555 93.6763L105.551 93.7039C105.398 93.7665 105.248 93.8391 105.104 93.9204C105.022 93.9674 104.941 94.0172 104.862 94.0699C104.411 94.3697 104.568 95.0721 105.101 95.1543L105.113 95.1562C105.122 95.1574 105.13 95.1587 105.138 95.16C104.876 95.7867 102.379 96.6707 101.921 97.1725C101.477 99.5928 101.695 99.5207 99.6477 98.8167H99.6464C99.423 99.7974 99.0963 100.756 98.6764 101.669L95.2074 101.67C95.195 101.631 95.1838 101.591 95.1726 101.552C95.4934 101.572 95.8166 101.553 96.1324 101.495C95.8749 101.177 95.6175 100.857 95.36 100.539C95.3538 100.533 95.3488 100.527 95.3438 100.52L95.3399 100.516L94.9827 99.3329C95.0109 99.0705 95.057 98.8103 95.1194 98.5543Z" fill="white"/>
<path d="M58.4614 101.641L27.7656 101.652C26.2235 101.653 24.8422 100.851 24.0707 99.5078C23.6849 98.8361 23.492 98.0993 23.4917 97.3623C23.4914 96.6254 23.684 95.8884 24.0692 95.2165L39.4074 67.1271C40.178 65.7833 41.5588 64.9808 43.1009 64.9802C44.643 64.9797 46.0243 65.7812 46.7959 67.1246L62.1554 95.2067C62.5401 95.8766 62.7326 96.6126 62.7327 97.3491C62.7326 98.0856 62.5402 98.8226 62.1549 99.4946C61.3843 100.838 60.0035 101.641 58.4614 101.641ZM23.8775 97.3618C23.8775 98.0326 27.2647 96.5871 27.6156 97.1981C28.3175 98.4202 26.3625 101.265 27.7655 101.265C27.7655 101.265 61.1203 100.524 61.8214 99.301C62.1719 98.6898 62.3471 98.0192 62.3468 97.3488C62.3466 96.6784 62.171 96.008 61.82 95.397L46.4605 67.3148C45.7606 66.0963 44.504 65.367 43.101 65.3675C41.6987 65.368 23.8776 96.6909 23.8775 97.3618Z" fill="#3F3D56"/>
<path d="M58.8022 101.254C58.4175 102.029 76.438 101.791 76.6511 101.791C76.6511 101.791 81.7162 101.678 81.8226 101.493C81.8759 101.4 81.9025 101.298 81.9024 101.196C81.9024 101.094 81.8757 100.993 81.8224 100.9L79.49 96.6353C79.3837 96.4503 79.1929 96.3395 78.9799 96.3396C78.971 96.3396 78.9579 96.3475 78.941 96.3627C75.8296 99.1598 71.995 101.009 67.8227 101.071C63.3861 101.138 58.8267 101.205 58.8022 101.254Z" fill="#3F3D56"/>
<path d="M10 101.77C10 101.897 10.1021 102 10.2292 102L110.771 101.965C110.898 101.965 111 101.862 111 101.735C111 101.607 110.898 101.504 110.771 101.504L10.229 101.539C10.102 101.539 9.99996 101.642 10 101.77Z" fill="#CCCCCC"/>
<path d="M87.7472 100.651L86.0061 100.652L85.1755 93.8957L87.7452 93.895L87.7472 100.651Z" fill="#A0616A"/>
<path d="M81.7819 100.613C81.7277 100.705 81.6992 101.002 81.6992 101.108C81.6993 101.437 81.964 101.703 82.2904 101.703L87.6824 101.701C87.9051 101.701 88.0855 101.519 88.0854 101.295L88.0854 101.069C88.0854 101.069 88.3519 100.39 87.8024 99.5541C87.8024 99.5541 87.1201 100.209 86.0998 99.1838L85.7989 98.6357L83.6224 100.238L82.4157 100.388C82.1517 100.421 81.9176 100.383 81.7819 100.613Z" fill="#2F2E41"/>
<path d="M81.0713 94.8729L79.422 95.4343L76.4843 89.302L78.9185 88.4734L81.0713 94.8729Z" fill="#A0616A"/>
<path d="M75.4082 96.7592C75.3861 96.8637 75.4535 97.1537 75.4875 97.2549C75.5921 97.5659 75.9276 97.7327 76.2367 97.6274L81.3442 95.8884C81.5551 95.8166 81.6682 95.5864 81.5968 95.3742L81.5248 95.1603C81.5248 95.1603 81.5612 94.4313 80.7744 93.816C80.7744 93.816 80.3366 94.6566 79.0436 94.0137L78.584 93.5916L77.0323 95.8109L75.9369 96.3416C75.6972 96.4577 75.4635 96.4975 75.4082 96.7592Z" fill="#2F2E41"/>
<path d="M78.3818 55.6815L75.0046 66.933L71.0178 77.0536L77.3297 91.5067L79.67 90.4594L76.8696 77.1824L82.7424 68.1731L85.4829 96.2979L87.8235 96.1662L90.9978 62.218L91.4504 54.8267L78.3818 55.6815Z" fill="#2F2E41"/>
<path d="M88.5813 30.7573L83.6401 31.6748L83.2507 33.8988L80.2603 35.3388L78.7055 51.6915C78.7055 51.6915 76.1059 55.0937 78.1869 56.1395L91.4504 54.8267C91.4504 54.8267 92.0998 52.4079 91.4495 52.1784C90.7992 51.949 90.7972 46.1714 90.7972 46.1714L93.784 34.2876L89.3622 32.7193L88.5813 30.7573Z" fill="#E6E6E6"/>
<path d="M85.6666 30.7145C87.8703 30.7145 89.6567 28.9174 89.6567 26.7005C89.6567 24.4836 87.8703 22.6865 85.6666 22.6865C83.4629 22.6865 81.6765 24.4836 81.6765 26.7005C81.6765 28.9174 83.4629 30.7145 85.6666 30.7145Z" fill="#A0616A"/>
<path d="M88.3091 27.2961C87.9907 27.4715 88.2928 28.3087 88.0938 28.3811C87.8638 28.4647 87.0251 27.5044 87.0147 26.4287C87.0116 26.1031 87.0861 25.9468 87.0144 25.5608C86.9207 25.0559 86.6332 24.4604 86.367 24.4762C86.2092 24.4855 86.0551 24.71 86.0436 24.9102C86.0275 25.1909 86.2986 25.3014 86.2595 25.4526C86.1852 25.7406 85.0471 25.9394 84.6419 25.4532C84.3243 25.0719 84.5679 24.4026 84.4259 24.3684C84.3212 24.3431 84.2088 24.7116 83.7791 25.128C83.6172 25.2849 83.3764 25.5182 83.24 25.4536C83.0429 25.3604 83.1861 24.703 83.1319 24.6943C83.087 24.6871 83.0588 25.1491 82.8086 25.5623C82.4872 26.0931 81.8242 26.5022 81.5148 26.3221C81.3253 26.2118 81.3103 25.9046 81.2989 25.6713C81.2749 25.1798 80.5649 24.0492 80.7486 23.5233C81.1225 22.4532 81.7631 23.2075 82.0528 22.8504C82.4451 22.3669 82.797 22.6268 83.4545 22.0905C84.0968 21.5665 84.1024 21.0399 84.5325 21.0053C84.9199 20.974 85.0576 21.3897 85.5032 21.3304C85.8807 21.2801 85.9628 20.9577 86.258 21.0047C86.5282 21.0476 86.546 21.3316 86.9052 21.4384C87.1344 21.5065 87.1848 21.4079 87.4444 21.4382C87.9845 21.5012 88.3472 21.9961 88.4152 22.0888C88.6771 22.4461 88.5755 22.5968 88.8468 22.9565C89.0808 23.2667 89.5993 23.135 89.7943 23.2899C90.4313 23.7961 90.7051 24.7297 90.7106 25.7938C90.7145 26.538 90.618 26.914 90.4028 27.8534C90.2393 28.5667 89.4823 29.4885 89.0649 29.8996C88.9529 30.0099 88.6388 30.3192 88.418 30.2252C88.2087 30.1362 88.2024 29.7357 88.2021 29.6829C88.2011 29.501 88.2493 29.276 88.6331 28.7064C89.0363 28.1079 89.1965 28.0397 89.172 27.8383C89.1288 27.4823 88.5629 27.1564 88.3091 27.2961Z" fill="#2F2E41"/>
<path d="M74.3908 64.7195C74.2666 65.7657 74.7025 66.6783 75.3643 66.7578C76.0261 66.8373 76.6633 66.0536 76.7875 65.0074C76.8419 64.5494 76.7889 64.1171 76.6567 63.769L77.1276 59.3291L75.0518 59.1511L74.8078 63.5469C74.5979 63.8539 74.4452 64.2615 74.3908 64.7195Z" fill="#A0616A"/>
<path d="M80.3577 35.2332C80.3577 35.2332 79.2822 35.2485 78.5702 36.6476C78.1918 37.391 76.1673 51.2932 76.1673 51.2932L74.3025 62.6817L77.4792 62.6978L79.9546 51.9126L82.0369 45.6574L80.3577 35.2332Z" fill="#E6E6E6"/>
<path d="M89.2973 63.0483C88.9931 64.0566 89.2635 65.0318 89.9013 65.2265C90.5391 65.4213 91.3028 64.7618 91.607 63.7535C91.7401 63.3122 91.7631 62.8772 91.6935 62.5112L92.9292 58.2226L90.9163 57.6821L89.9118 61.9672C89.6517 62.2325 89.4304 62.607 89.2973 63.0483Z" fill="#A0616A"/>
<path d="M91.5084 34.4845C91.5084 34.4845 93.0685 33.3066 94.3695 35.1376C95.6705 36.9686 96.1959 52.0124 96.1959 52.0124L92.558 61.3017L89.8269 60.3869L92.4237 49.0049L87.8694 40.3725L91.5084 34.4845Z" fill="#E6E6E6"/>
<path d="M52.0578 95.4469C59.8188 95.4469 66.1104 89.1176 66.1104 81.3101C66.1104 73.5026 59.8188 67.1733 52.0578 67.1733C44.2967 67.1733 38.0051 73.5026 38.0051 81.3101C38.0051 89.1176 44.2967 95.4469 52.0578 95.4469Z" fill="#FD1111"/>
<path d="M52.0603 89.9761C52.7729 89.9761 53.3506 89.395 53.3506 88.6781C53.3506 87.9613 52.7729 87.3801 52.0603 87.3801C51.3477 87.3801 50.77 87.9613 50.77 88.6781C50.77 89.395 51.3477 89.9761 52.0603 89.9761Z" fill="white"/>
<path d="M52.0548 72.6441C51.9363 73.4363 52.1486 73.6021 52.1498 77.0178C52.151 80.4334 52.8555 85.0129 52.059 85.0132C51.2626 85.0135 50.9713 75.5623 48.2058 74.7259C44.9542 73.7424 52.4385 70.0793 52.0548 72.6441Z" fill="white"/>
<path d="M33.197 88.5277L31.9274 91.2263C33.4623 90.1191 35.8597 89.1647 37.7674 88.6535C35.9899 87.7897 33.8148 86.3971 32.5153 85.0182L33.2456 87.8697C24.6842 86.1154 18.5362 79.5083 18.5336 71.9398L18.2244 71.8328C18.2271 79.7383 24.29 86.7366 33.197 88.5277Z" fill="white"/>
</svg>
