<svg width="120" height="120" viewBox="0 0 120 120" fill="none" xmlns="http://www.w3.org/2000/svg">
<path d="M35.3169 44.6578C35.3169 44.6578 24.8356 48.2069 22.8255 51.4831C20.8154 54.7593 35.3169 44.6578 35.3169 44.6578Z" fill="#DF650F"/>
<path d="M17.2067 56.0182C17.1338 56.0236 17.0606 56.0134 16.992 55.9886C16.9234 55.9637 16.861 55.9246 16.8091 55.874C16.4831 55.5852 16.7496 55.0393 16.9783 54.6536C20.0447 49.4856 35.463 44.0396 36.1177 43.8103L37.5278 43.3167L36.3204 44.1862C36.2758 44.2185 31.7903 47.4463 27.1985 50.4874C20.0599 55.2154 17.9405 56.0182 17.2067 56.0182ZM34.7474 44.7763C30.6989 46.3169 19.7885 50.7706 17.3562 54.8702C17.0323 55.4161 17.1008 55.5532 17.1017 55.5543C17.1672 55.6238 17.9958 56.0601 26.9009 50.1662C30.0051 48.1115 33.0677 45.9659 34.7474 44.7763Z" fill="#3F3D56"/>
<path d="M35.0897 41.1128C35.0897 41.1128 25.4307 40.1366 22.5006 41.8048C19.5704 43.4729 35.0897 41.1128 35.0897 41.1128Z" fill="#3A89FD"/>
<path d="M21.9275 42.7082C18.5465 42.7082 18.3144 42.1754 18.208 41.9318C17.9955 41.4443 18.5868 40.9852 18.7812 40.8344C22.9736 37.5801 35.7077 40.8688 36.2478 41.0103L37.2834 41.2819L36.2224 41.4308C36.1796 41.4368 31.9131 42.0335 27.6075 42.407C25.0964 42.6248 23.2653 42.7082 21.9275 42.7082ZM24.8904 39.8405C22.5089 39.8405 20.3304 40.1797 19.0523 41.1718C18.6667 41.471 18.571 41.673 18.6101 41.7622C18.7081 41.9869 19.6436 42.6663 27.569 41.9787C30.5223 41.7225 33.457 41.361 35.0156 41.1583C33.0186 40.7064 28.6954 39.8405 24.8904 39.8405Z" fill="#3F3D56"/>
<path d="M37.854 39.4402C37.854 39.4402 32.9955 27.9711 34.1727 26.8359C35.3498 25.7006 37.854 39.4402 37.854 39.4402Z" fill="#3A89FD"/>
<path d="M38.1223 40.4492L37.5182 38.9316C37.5034 38.8944 36.0253 35.1718 34.8073 31.3393C32.2984 23.4463 33.3268 22.7722 33.6646 22.5508C33.748 22.492 33.8459 22.4565 33.9481 22.448C34.0504 22.4395 34.153 22.4584 34.2452 22.5026C36.1402 23.3707 37.7607 37.2498 37.9393 38.8295L38.1223 40.4492ZM33.9973 22.8763C33.9646 22.8778 33.9332 22.8891 33.9072 22.9085C32.6998 23.6999 35.1474 31.4912 37.2991 37.1621C36.5611 31.3147 35.2021 23.4153 34.0605 22.8922C34.0409 22.8824 34.0193 22.8769 33.9973 22.8763Z" fill="#3F3D56"/>
<path d="M39.6904 41.9624C39.6904 41.9624 42.2981 30.3696 45.0299 30.3696C47.7618 30.3696 39.6904 41.9624 39.6904 41.9624Z" fill="#D63AFD"/>
<path d="M39.002 42.7623L39.2599 41.8078C39.4493 41.1078 43.9518 24.6644 48.874 24.6644C49.5488 24.6644 49.8398 24.9757 49.9654 25.2367C51.2778 27.9695 40.8352 40.5716 39.6402 41.9995L39.002 42.7623ZM48.874 25.0944C44.9452 25.0944 41.04 37.3024 39.9691 40.9205C43.4927 36.6164 50.5161 27.3906 49.5699 25.4203C49.531 25.3397 49.4134 25.0944 48.874 25.0944Z" fill="#3F3D56"/>
<path d="M41.2207 42.078C41.2207 42.078 50.186 36.5081 68.554 38.2083C86.922 39.9085 41.2207 42.078 41.2207 42.078Z" fill="#FF8733"/>
<path d="M40.6094 42.3103L41.0787 41.9148C41.1738 41.8347 43.4593 39.9353 48.0387 38.4079C52.2527 37.002 59.2774 35.6777 68.8113 37.3517C72.8394 38.0589 73.3623 38.5859 73.3273 39.05C73.2927 39.5085 73.2116 40.5823 57.1178 41.5779C49.2533 42.0643 41.3066 42.2907 41.2271 42.2929L40.6094 42.3103ZM60.1587 36.9998C49.8028 36.9998 43.6803 40.6174 41.9051 41.8421C44.0066 41.776 50.5775 41.5517 57.0913 41.1487C72.0461 40.2236 72.8765 39.2116 72.8911 39.0182C72.8928 38.9975 72.8817 38.5031 68.7345 37.775C65.9047 37.2683 63.0349 37.0089 60.1587 36.9998Z" fill="#3F3D56"/>
<path d="M46.9062 42.7311C46.9062 42.7311 62.6103 42.5251 63.4926 44.1737C64.3748 45.8223 46.9062 42.7311 46.9062 42.7311Z" fill="#3A89FD"/>
<path d="M65.5035 46.9438C60.4908 46.9438 48.4419 43.4051 46.8427 42.9287L45.5322 42.5383L46.9012 42.508C48.91 42.4638 66.5592 42.1752 67.6694 45.6685C67.801 46.0823 67.6485 46.3478 67.4973 46.4977C67.1812 46.811 66.4742 46.9438 65.5035 46.9438ZM48.3386 42.9183C55.7047 45.0408 65.9329 47.439 67.1868 46.195C67.2547 46.1276 67.3235 46.0214 67.2521 45.7968C66.4633 43.315 54.426 42.8776 48.3386 42.9183Z" fill="#3F3D56"/>
<path d="M43.8447 44.4427C43.8447 44.4427 53.3301 48.753 51.4766 50.0793C49.6231 51.4055 43.8447 44.4427 43.8447 44.4427Z" fill="#3A89FD"/>
<path d="M57.3866 55.2942C52.7982 55.2942 43.4558 44.444 43.0212 43.9362L42.4062 43.2175L43.2781 43.6017C43.9143 43.882 58.8624 50.5065 59.1895 53.8246C59.2329 54.2647 59.0364 54.6495 58.6215 54.9376C58.2583 55.1812 57.8262 55.3061 57.3866 55.2942ZM43.9999 44.3979C47.6075 48.4671 55.6341 56.485 58.3691 54.5863C58.6604 54.3842 58.7827 54.1554 58.7543 53.8661C58.519 51.4804 48.7508 46.5611 43.9999 44.3979Z" fill="#3F3D56"/>
<path d="M59.5889 49.6024C59.5889 49.6024 67.4608 52.8271 65.7115 54.9769C63.9622 57.1267 59.5889 49.6024 59.5889 49.6024Z" fill="#3A89FD"/>
<path d="M44.9385 47.0226C44.9385 47.0226 61.3384 64.6511 59.8078 65.726C58.2771 66.8009 44.9385 47.0226 44.9385 47.0226Z" fill="#3A89FD"/>
<path d="M41.877 45.7327C41.877 45.7327 48.7817 57.0388 47.3726 58.138C45.9635 59.2372 41.877 45.7327 41.877 45.7327Z" fill="#3A89FD"/>
<path d="M49.6925 62.3732C49.6063 62.3726 49.5208 62.3585 49.4392 62.3314C46.9079 61.5139 41.806 46.8283 41.2326 45.1564L40.7227 43.6696L41.6206 44.9668C41.6473 45.0055 44.3311 48.8892 46.7127 52.907C51.1155 60.3344 50.7506 61.795 50.0931 62.2474C49.9761 62.3294 49.8361 62.3734 49.6925 62.3732ZM42.2031 46.6027C44.0642 51.7965 47.8107 61.353 49.5757 61.9231C49.6189 61.941 49.666 61.9478 49.7127 61.9429C49.7593 61.9381 49.8039 61.9216 49.8424 61.8951C50.2037 61.6466 50.5853 60.2942 46.3358 53.1251C44.8282 50.5816 43.1985 48.0913 42.2031 46.6027Z" fill="#3F3D56"/>
<path d="M38.9558 45.3027C38.9558 45.3027 32.7414 63.3306 36.5548 63.1447C40.3681 62.9589 38.9558 45.3027 38.9558 45.3027Z" fill="#D63AFD"/>
<path d="M35.0077 66.1576C34.3385 66.1576 33.8238 65.9004 33.477 65.3924C31.0168 61.7874 38.3048 45.889 38.6161 45.2139L38.9486 44.4935L39.0327 45.2802C39.1017 45.924 40.68 61.0956 37.1047 65.1486C36.5394 65.7892 35.867 66.128 35.1061 66.1557C35.073 66.157 35.0402 66.1576 35.0077 66.1576ZM38.6746 46.1491C37.2339 49.4061 31.8057 62.1716 33.8403 65.1528C34.1174 65.5593 34.5262 65.7476 35.0899 65.7262C35.734 65.7027 36.2849 65.4216 36.7743 64.8669C39.7631 61.4788 38.9557 49.4226 38.6746 46.1491Z" fill="#3F3D56"/>
<path d="M36.809 46.1989C36.809 46.1989 26.3776 57.9288 27.3323 59.1642C28.2869 60.3996 36.809 46.1989 36.809 46.1989Z" fill="#3A89FD"/>
<path d="M24.1943 63.4404C24.0562 63.4426 23.9214 63.3987 23.8119 63.3159C23.7375 63.2564 23.6769 63.1821 23.6341 63.0978C23.5913 63.0135 23.5673 62.9212 23.5637 62.8271C23.3017 59.9131 37.1872 44.7288 37.7783 44.0839L39.1761 42.5591L38.13 44.3355C37.6841 45.0926 27.1792 62.8827 24.3504 63.4248C24.299 63.4349 24.2467 63.4401 24.1943 63.4404ZM36.6282 46.0013C32.0276 51.1382 23.8174 60.7663 23.9993 62.7893C23.9977 62.8245 24.0042 62.8596 24.0183 62.892C24.0323 62.9244 24.0536 62.9533 24.0805 62.9766C24.1074 62.9947 24.1382 63.0065 24.1705 63.011C24.2028 63.0156 24.2357 63.0128 24.2667 63.0028C26.2217 62.6283 33.0509 51.9201 36.6282 46.0013Z" fill="#3F3D56"/>
<path d="M33.6785 38.3002C33.6785 38.3002 24.5841 27.7386 16.1743 28.7622C7.76448 29.7857 33.6785 38.3002 33.6785 38.3002Z" fill="#FF8733"/>
<path d="M34.8906 38.7937L34.1748 38.6329C34.1174 38.62 28.3695 37.3239 22.6867 35.6705C11.05 32.2849 11.0124 30.728 11.0003 30.2165C10.9853 29.5993 11.6244 29.1218 12.9542 28.757C17.8889 27.4027 23.4608 30.0703 27.2648 32.5471C29.8194 34.2257 32.2025 36.1436 34.3809 38.274L34.8906 38.7937ZM15.7782 28.8194C14.8639 28.8149 13.9533 28.9332 13.0716 29.1712C12.0086 29.4628 11.4284 29.8304 11.4374 30.2063C11.4871 32.2704 24.3923 35.951 33.5186 38.0427C31.3612 36.008 23.2105 28.8194 15.7782 28.8194Z" fill="#3F3D56"/>
<path d="M26.5705 37.5634C26.5705 37.5634 14.5439 36.7034 15.4185 38.8532C16.2932 41.0031 26.5705 37.5634 26.5705 37.5634Z" fill="#3A89FD"/>
<path d="M29.6315 29.609C29.6315 29.609 28.9755 26.5993 27.8821 27.2442C26.7888 27.8892 29.6315 29.609 29.6315 29.609Z" fill="#3A89FD"/>
<path d="M40.7104 31.7386C40.7104 31.7386 43.711 19.3425 42.3511 19.297C40.9911 19.2515 40.7104 31.7386 40.7104 31.7386Z" fill="#3A89FD"/>
<path d="M40.1519 34.4832L40.1274 32.8369C40.1195 32.3082 39.9527 19.8676 41.5978 18.226C41.6607 18.1569 41.7372 18.1013 41.8228 18.0624C41.9084 18.0235 42.0011 18.0023 42.0954 18C42.1868 18.0004 42.2769 18.0219 42.3583 18.0629C42.4397 18.1039 42.5101 18.1631 42.5639 18.2359C43.8297 19.83 40.8968 31.5542 40.5581 32.8859L40.1519 34.4832ZM42.0954 18.43C42.0736 18.43 42.0074 18.43 41.9094 18.5278C40.8229 19.6119 40.5707 26.8242 40.5559 31.0658C41.7603 26.0116 42.9877 19.4681 42.2192 18.5005C42.2064 18.4794 42.1882 18.4618 42.1666 18.4495C42.1449 18.4371 42.1204 18.4304 42.0954 18.43Z" fill="#3F3D56"/>
<path d="M54.5596 33.4787C54.5596 33.4787 55.8716 30.254 57.1836 31.1139C58.4956 31.9738 54.5596 33.4787 54.5596 33.4787Z" fill="#D63AFD"/>
<path d="M42.0954 62.0713C42.0954 62.0713 40.3461 74.7552 43.6261 74.5402C46.9061 74.3253 42.0954 62.0713 42.0954 62.0713Z" fill="#3A89FD"/>
<path d="M51.2459 59.1868C51.2459 59.1868 49.5699 56.4404 49.5699 54.518C49.5699 54.518 46.6368 51.497 47.4748 50.6731C48.3128 49.8492 50.1285 53.0075 50.1285 53.0075C50.1285 53.0075 46.7765 49.2999 47.7541 48.7506C48.7318 48.2014 51.9443 52.3209 51.9443 52.3209L53.0616 51.7716C53.0616 51.7716 50.6883 46.0167 52.3633 45.867C53.1315 45.7983 54.8774 51.3597 54.8774 51.3597L56.6931 55.8912C56.6931 55.8912 57.3914 57.539 57.1121 58.5002C56.9419 59.0879 56.8021 59.6837 56.6931 60.2853L51.2459 59.1868Z" fill="#FFB9B9"/>
<path opacity="0.1" d="M55.5758 59.8733C55.5758 59.8733 56.5535 58.3629 56.1997 56.0564C55.8458 53.75 53.8998 52.4582 53.8998 52.4582C53.8998 52.4582 52.6427 53.4194 53.8998 55.8911C53.8998 55.8911 52.3634 57.2643 53.6204 59.4614" fill="black"/>
<path d="M56.1344 59.8733C56.1344 59.8733 57.1121 58.3629 56.7583 56.0564C56.4044 53.75 54.4584 52.4582 54.4584 52.4582C54.4584 52.4582 53.2013 53.4194 54.4584 55.8911C54.4584 55.8911 52.922 57.2643 54.179 59.4614" fill="#FFB9B9"/>
<path opacity="0.1" d="M52.2936 52.2522L51.5254 51.085C51.5254 51.085 47.8939 50.5357 48.313 51.7716C48.732 53.0075 50.408 52.4582 50.408 52.4582L51.3857 53.4194L52.2936 52.2522Z" fill="black"/>
<path d="M52.9221 52.1836L51.8047 50.6731C51.8047 50.6731 48.1732 50.1238 48.5923 51.3597C49.0113 52.5955 50.6873 52.0463 50.6873 52.0463L51.665 53.0075L52.9221 52.1836Z" fill="#FFB9B9"/>
<path d="M78.8312 70.2408L78.1328 75.7335L89.0272 76.4201V69.8289L78.8312 70.2408Z" fill="#FFB9B9"/>
<path d="M109 101L100.165 83.6277C99.6373 81.9094 97.989 79.1108 92.8681 77.3127L89.0271 74.1181L86.1638 74.017L74.7108 72.3692C74.7108 72.3692 65.9115 71.82 60.185 75.2529L58.6487 74.5663C58.6487 74.5663 56.1346 65.778 57.2519 59.4614L50.8271 58.9121C50.8271 58.9121 47.3353 73.8797 49.0114 78.4112C50.6874 82.9427 56.8329 86.2383 56.8329 86.2383L62.2801 91.5937L64.3752 100.931H97.0582L97.5782 98.4814L100.131 100.931L109 101Z" fill="#CFCCE0"/>
<path d="M96.647 69.8296C86.3569 72.5615 76.2432 72.7546 66.3432 69.8717C65.1794 69.5328 64.3838 68.5283 64.3838 67.3881V38.9556C64.3838 37.6834 65.3684 36.5982 66.7102 36.3913C76.0493 34.9514 85.9428 35.0629 96.2905 36.4451C97.6577 36.6277 98.6727 37.7254 98.6727 39.0174V67.3279C98.6727 68.492 97.8441 69.5118 96.647 69.8296Z" fill="#CFCCE0"/>
<path d="M75.4257 50.3733C75.4257 50.3733 73.059 46.9725 74.5154 46.0775C75.9719 45.1826 78.1566 47.6885 78.1566 47.6885C78.1566 47.6885 80.8875 45.3616 82.344 46.2565C83.8005 47.1515 80.8875 50.3733 80.8875 50.3733C80.8875 50.3733 83.0723 50.9103 83.2543 52.3423C83.4364 53.7742 84.1646 57.533 81.0696 57.712C79.4116 57.8079 78.485 57.3387 77.982 56.8824C77.799 56.7211 77.5626 56.6306 77.3168 56.6277C77.071 56.6249 76.8325 56.7098 76.6456 56.8668C75.5961 57.7362 73.7059 58.7382 72.3307 56.2801C71.7846 52.5212 75.4257 50.3733 75.4257 50.3733Z" fill="#3F3D56"/>
<path d="M92.9034 50.7313C92.9034 50.7313 95.2701 47.3305 93.8137 46.4355C92.3572 45.5405 90.1725 48.0464 90.1725 48.0464C90.1725 48.0464 87.4416 45.7195 85.9851 46.6145C84.5286 47.5095 87.4416 50.7313 87.4416 50.7313C87.4416 50.7313 85.2569 51.2683 85.0748 52.7002C84.8927 54.1322 84.1645 57.891 87.2595 58.07C88.9176 58.1659 89.8441 57.6967 90.3471 57.2404C90.5301 57.0791 90.7665 56.9886 91.0123 56.9857C91.2581 56.9828 91.4966 57.0678 91.6835 57.2248C92.7331 58.0941 94.6233 59.0962 95.9984 56.6381C96.5446 52.8792 92.9034 50.7313 92.9034 50.7313Z" fill="#3F3D56"/>
<path d="M72.5523 60.026C72.5523 60.026 75.9676 62.7293 83.2502 62.5589C90.5328 62.3884 92.8879 62.0962 94.4445 60.4086C96.0012 58.721 96.4626 60.6701 95.9792 61.9477C95.4958 63.2254 94.875 65.4057 91.247 65.759C88.8586 65.9917 83.6963 66.0468 80.4476 66.0574C77.9225 66.0779 75.4258 65.5318 73.1477 64.4608C73.1175 64.4464 73.0875 64.432 73.0576 64.4175C72.3666 64.0819 71.7847 63.5631 71.3778 62.9195C70.9709 62.276 70.7551 61.5334 70.7549 60.7756C70.7552 60.1735 70.863 59.8481 71.2617 59.7296C71.9801 59.5159 72.5523 60.026 72.5523 60.026Z" fill="#3F3D56"/>
<path d="M82.9995 72.4113C77.4334 72.4141 71.8988 71.5887 66.584 69.963C65.9265 69.765 65.3512 69.3645 64.9429 68.8205C64.5346 68.2765 64.315 67.618 64.3164 66.9419V33.6332C64.3142 32.8832 64.5841 32.1571 65.0777 31.5853C65.5713 31.0135 66.2561 30.6336 67.0092 30.5139C77.0391 28.8886 88.1452 28.9096 100.019 30.5765C100.783 30.6875 101.482 31.0642 101.988 31.6383C102.494 32.2125 102.774 32.9459 102.776 33.7055V66.8715C102.774 67.5599 102.543 68.2288 102.121 68.7776C101.698 69.3264 101.105 69.7254 100.432 69.9146C94.6176 71.5368 88.8694 72.3765 83.347 72.4102C83.2316 72.4109 83.1151 72.4113 82.9995 72.4113ZM82.6126 29.5438C77.3997 29.5267 72.1941 29.9282 67.0478 30.7442C66.3503 30.8551 65.716 31.207 65.2589 31.7365C64.8018 32.2661 64.5517 32.9386 64.5538 33.6332V66.9419C64.5525 67.5681 64.756 68.1782 65.1343 68.682C65.5125 69.1858 66.0455 69.5568 66.6545 69.7401C77.266 72.9877 88.6085 72.9708 100.367 69.69C100.991 69.5149 101.54 69.1454 101.931 68.6371C102.323 68.1288 102.536 67.5092 102.539 66.8715V33.7055C102.536 33.002 102.277 32.3227 101.809 31.791C101.34 31.2592 100.693 30.9103 99.9853 30.8075C94.232 29.9834 88.4266 29.5611 82.6126 29.5438Z" fill="#3F3D56"/>
<path d="M81.883 34.4825C79.2676 34.4825 77.0295 34.3672 75.197 34.2109C69.4334 33.7194 66.3276 32.7274 66.2969 32.7175L66.3713 32.4958C66.4018 32.5057 69.4888 33.4908 75.2286 33.9793C80.5261 34.4303 89.2316 34.5382 100.618 32.4918L100.661 32.7215C93.1801 34.0658 86.8519 34.4825 81.883 34.4825Z" fill="#3F3D56"/>
</svg>
