<svg width="120" height="120" viewBox="0 0 120 120" fill="none" xmlns="http://www.w3.org/2000/svg">
<path d="M109.453 98.5736L106.025 88.2307C106.025 88.2307 109.795 92.0005 109.795 95.0937L109.119 87.9407C109.119 87.9407 111.052 90.5506 110.859 94.5137C110.665 98.4769 109.453 98.5736 109.453 98.5736Z" fill="#E6E6E6"/>
<path d="M35.8513 89.1559L32.5063 79.0616C32.5063 79.0616 36.1856 82.7408 36.1856 85.7596L35.5252 78.7786C35.5252 78.7786 37.412 81.3257 37.2233 85.1936C37.0346 89.0615 35.8513 89.1559 35.8513 89.1559Z" fill="#E6E6E6"/>
<path d="M88.0596 93.814C88.0653 100.454 74.8953 98.4117 58.7721 98.4256C42.6489 98.4396 29.6781 100.505 29.6724 93.8644C29.6666 87.2242 42.8318 85.7687 58.955 85.7547C75.0782 85.7408 88.0539 87.1738 88.0596 93.814Z" fill="#E6E6E6"/>
<path d="M120 98.4218H0V98.7256H120V98.4218Z" fill="#3F3D56"/>
<path d="M76.76 84.8464H74.6521L73.6489 76.7161H76.76V84.8464Z" fill="#A0616A"/>
<path d="M72.9123 84.2441H77.2117V86.8037H70.5869V86.5696C70.5869 85.9528 70.8319 85.3613 71.268 84.9252C71.7041 84.4891 72.2956 84.2441 72.9123 84.2441Z" fill="#2F2E41"/>
<path d="M92.2536 96.8464H90.1457L89.1426 88.7161H92.2536V96.8464Z" fill="#A0616A"/>
<path d="M88.406 96.2441H92.7054V98.8037H86.0806V98.5696C86.0806 97.9528 86.3256 97.3613 86.7617 96.9252C87.1978 96.4891 87.7893 96.2441 88.406 96.2441Z" fill="#2F2E41"/>
<path d="M101.977 72.6926C102.122 72.5159 102.228 72.3093 102.285 72.0875C102.342 71.8657 102.35 71.634 102.308 71.4088C102.266 71.1836 102.175 70.9703 102.042 70.784C101.909 70.5977 101.736 70.4428 101.537 70.3304L96.641 50.3872L93.5107 51.734L99.3338 71.0174C99.1672 71.3652 99.1339 71.7621 99.2403 72.1328C99.3467 72.5035 99.5854 72.8223 99.9111 73.0288C100.237 73.2353 100.627 73.3151 101.008 73.2532C101.388 73.1912 101.733 72.9917 101.977 72.6926Z" fill="#A0616A"/>
<path d="M98.1584 32.3869C97.9837 32.2042 97.7711 32.0621 97.5355 31.9705C97.2999 31.8789 97.0471 31.8401 96.7949 31.8568C96.5427 31.8735 96.2972 31.9453 96.0757 32.0671C95.8543 32.1889 95.6622 32.3578 95.5131 32.5619L87.9355 33.4318L89.0882 36.3546L95.9796 35.0648C96.339 35.2926 96.7695 35.3807 97.1895 35.3123C97.6096 35.2438 97.9899 35.0237 98.2585 34.6936C98.5271 34.3635 98.6652 33.9464 98.6468 33.5212C98.6283 33.0961 98.4546 32.6925 98.1584 32.3869Z" fill="#A0616A"/>
<path d="M85.6709 70.6242L88.9774 95.4405L93.0929 94.5932C93.0929 94.5932 92.4877 76.5201 94.5454 74.3413C96.6031 72.1625 91.8987 68.3457 91.8987 68.3457L85.6709 70.6242Z" fill="#3F3D56"/>
<path d="M87.0377 63.7889L85.5187 66.0673C85.5187 66.0673 73.8225 61.2067 73.8225 68.9534C73.8225 76.7001 73.1532 81.9574 72.9111 82.3205C72.669 82.6836 75.7117 83.6259 77.1643 83.3838C77.1643 83.3838 78.9562 70.8949 78.8351 70.1686C78.8351 70.1686 90.3086 75.7939 92.4874 75.3098C94.6661 74.8256 95.1809 73.1116 95.544 72.1433C95.9071 71.1749 95.3921 63.4851 95.3921 63.4851L88.1298 61.2688L87.0377 63.7889Z" fill="#3F3D56"/>
<path d="M87.2429 50.1087L86.81 49.5892C86.81 49.5892 81.9608 38.6786 83.8658 35.7345C85.7709 32.7903 94.0837 32.3574 94.3435 32.5305C94.6033 32.7037 93.723 34.9522 94.3291 35.9913C94.3291 35.9913 87.8895 37.3875 87.4566 37.5607C87.0236 37.7339 90.7932 44.1339 90.7932 44.1339L90.3602 48.0305L87.2429 50.1087Z" fill="#CCCCCC"/>
<path d="M95.7287 44.7401C95.7287 44.7401 91.2259 45.2596 91.0527 45.2596C90.8795 45.2596 90.7929 44.1339 90.7929 44.1339L86.8097 49.5892C86.8097 49.5892 84.8473 65.4157 85.3669 65.1559C85.8864 64.8961 95.4689 66.3881 95.5555 65.6953C95.6421 65.0026 95.4689 61.5389 95.7287 61.3657C95.9885 61.1925 100.231 50.4551 100.231 50.4551C100.231 50.4551 99.7985 48.2037 98.3265 47.4244C96.8544 46.6451 95.7287 44.7401 95.7287 44.7401Z" fill="#CCCCCC"/>
<path d="M98.8465 48.983L100.232 50.4551C100.232 50.4551 102.29 67.3705 101.165 67.8901C100.039 68.4096 97.823 68.3458 97.823 68.3458L95.6426 60.3266L98.8465 48.983Z" fill="#CCCCCC"/>
<path d="M91.4017 43.6688C93.6029 43.6688 95.3873 41.8844 95.3873 39.6832C95.3873 37.4819 93.6029 35.6975 91.4017 35.6975C89.2005 35.6975 87.416 37.4819 87.416 39.6832C87.416 41.8844 89.2005 43.6688 91.4017 43.6688Z" fill="#A0616A"/>
<path d="M90.4665 40.305C90.4127 39.478 89.3694 39.4497 88.5406 39.4419C87.7119 39.434 86.7212 39.4636 86.2522 38.7803C85.9423 38.3287 86.0015 37.7017 86.2575 37.2176C86.5136 36.7334 86.9347 36.361 87.349 36.0028C88.4185 35.0779 89.5209 34.1603 90.805 33.5684C92.0891 32.9764 93.5939 32.7372 94.9257 33.2124C96.5616 33.7961 98.7732 36.8011 98.9641 38.5276C99.1551 40.254 98.4651 42.014 97.3021 43.3042C96.139 44.5943 93.477 44.0738 91.8017 44.5327C92.8202 43.0913 92.1489 40.4721 90.5173 39.7989L90.4665 40.305Z" fill="#2F2E41"/>
<path d="M54.945 91.8599C60.2292 91.8599 64.5129 87.5761 64.5129 82.2919C64.5129 77.0076 60.2292 72.7239 54.945 72.7239C49.6607 72.7239 45.377 77.0076 45.377 82.2919C45.377 87.5761 49.6607 91.8599 54.945 91.8599Z" fill="#FD1111"/>
<path d="M48.5556 72.044C47.2295 72.0441 45.9319 71.6598 44.8197 70.9377C43.7075 70.2156 42.8284 69.1866 42.2889 67.9752L27.1063 33.7841C26.6034 32.6515 26.3374 31.428 26.3247 30.1889C26.312 28.9497 26.5529 27.721 27.0325 26.5784C27.5121 25.4357 28.2203 24.4032 29.1136 23.5444C30.007 22.6855 31.0665 22.0184 32.2271 21.584C33.3877 21.1497 34.6249 20.9573 35.8626 21.0187C37.1003 21.0801 38.3124 21.394 39.4244 21.9411C40.5363 22.4881 41.5246 23.2568 42.3286 24.1999C43.1325 25.1429 43.7351 26.2404 44.0992 27.425L55.0933 63.1838C55.408 64.2073 55.4784 65.2904 55.2986 66.346C55.1188 67.4017 54.694 68.4004 54.0582 69.2621C53.4224 70.1238 52.5934 70.8243 51.6377 71.3074C50.6821 71.7906 49.6264 72.0429 48.5556 72.044Z" fill="#FD1111"/>
</svg>
