<svg width="120" height="120" viewBox="0 0 120 120" fill="none" xmlns="http://www.w3.org/2000/svg">
<path d="M20.1364 99.3479C20.0403 99.3524 19.9451 99.327 19.8638 99.2753C19.7825 99.2236 19.7189 99.148 19.6818 99.0587C19.6447 98.9695 19.6357 98.871 19.6562 98.7765C19.6767 98.682 19.7256 98.5961 19.7962 98.5305L19.8284 98.402C19.8242 98.3917 19.8199 98.3815 19.8156 98.3712C19.7188 98.1413 19.5565 97.9453 19.3491 97.8079C19.1417 97.6704 18.8985 97.5975 18.6501 97.5984C18.4016 97.5994 18.159 97.674 17.9527 97.8131C17.7463 97.9521 17.5855 98.1493 17.4903 98.3799C17.11 99.3001 16.6258 100.222 16.5066 101.195C16.454 101.625 16.4762 102.061 16.572 102.484C15.6788 100.526 15.2149 98.3982 15.2119 96.2446C15.2117 95.7042 15.2416 95.1642 15.3015 94.6271C15.3509 94.1869 15.4195 93.7497 15.5072 93.3157C15.986 90.9608 17.0139 88.7536 18.5066 86.8753C19.2291 86.4793 19.8133 85.8703 20.1806 85.1304C20.3137 84.8644 20.4078 84.5804 20.4599 84.2874C20.3784 84.2981 20.1526 83.0511 20.2141 82.9746C20.1005 82.8015 19.8972 82.7154 19.7732 82.5464C19.1563 81.7061 18.3063 81.8528 17.8626 82.9948C16.9148 83.4754 16.9056 84.2725 17.4872 85.0391C17.8572 85.5268 17.9081 86.1867 18.2327 86.7089C18.1993 86.7518 18.1646 86.7935 18.1312 86.8364C17.5206 87.6252 16.9884 88.4722 16.5423 89.3653C16.6508 88.3648 16.5213 87.3527 16.1645 86.4123C15.8029 85.5358 15.1251 84.7976 14.5282 84.04C13.8113 83.1298 12.3411 83.527 12.2148 84.6807C12.2136 84.6919 12.2124 84.7031 12.2112 84.7142C12.2999 84.7645 12.3866 84.8178 12.4716 84.8743C12.5782 84.9459 12.6609 85.0482 12.7087 85.1678C12.7565 85.2874 12.7672 85.4187 12.7395 85.5446C12.7117 85.6704 12.6468 85.7849 12.5532 85.873C12.4596 85.9611 12.3416 86.0188 12.2148 86.0384L12.2019 86.0404C12.2334 86.3615 12.2893 86.6796 12.3689 86.9921C11.6031 89.9673 13.2563 91.0509 15.6167 91.0996C15.6689 91.1264 15.7196 91.1533 15.7717 91.1788C15.3235 92.4549 15.0424 93.7842 14.9354 95.1332C14.8748 95.9291 14.8784 96.7285 14.9461 97.5238L14.9421 97.4956C14.771 96.6113 14.3015 95.8133 13.6127 95.2365C12.5897 94.3922 11.1443 94.0813 10.0407 93.4027C9.9234 93.327 9.78702 93.2866 9.64764 93.2863C9.50825 93.2859 9.37168 93.3257 9.25402 93.4007C9.13636 93.4758 9.04253 93.5831 8.98359 93.71C8.92465 93.8369 8.90306 93.9781 8.92137 94.117C8.92285 94.1268 8.92436 94.1367 8.92589 94.1466C9.09041 94.2139 9.2506 94.2915 9.40552 94.3788C9.49417 94.4291 9.58096 94.4824 9.66587 94.5388C9.77254 94.6104 9.8552 94.7127 9.903 94.8323C9.95081 94.9519 9.96155 95.0833 9.9338 95.2091C9.90605 95.335 9.84111 95.4494 9.74749 95.5376C9.65387 95.6257 9.53594 95.6834 9.40915 95.703L9.39616 95.705C9.38681 95.7064 9.37879 95.7077 9.36945 95.709C9.65056 96.3834 10.0451 97.0041 10.5358 97.544C11.0146 100.141 13.071 100.388 15.2707 99.6312H15.2721C15.5134 100.685 15.8631 101.711 16.3155 102.692H20.043C20.0564 102.65 20.0684 102.607 20.0804 102.565C19.7354 102.587 19.389 102.567 19.049 102.504C19.3256 102.163 19.6021 101.819 19.8787 101.478C19.8849 101.472 19.8907 101.465 19.8961 101.458C20.0364 101.284 20.178 101.11 20.3183 100.936L20.3183 100.936C20.3258 100.401 20.2646 99.8671 20.1364 99.3479Z" fill="#F2F2F2"/>
<path d="M24.4238 102.608H30.4389C31.4676 99.1277 30.4444 90.903 31.8004 87.5413C34.4019 81.0957 37.7254 74.2946 43.9287 71.1474C46.5773 69.8035 49.4651 69.2786 52.4144 69.3072C56.4885 69.346 60.6772 70.4448 64.512 71.901C66.0807 72.4953 67.6351 73.1489 69.1833 73.8167C75.0164 76.3349 80.786 79.0778 87.0588 79.8192C94.9963 80.7566 104.329 77.1886 106.497 69.5033C108.151 63.6193 105.171 57.5107 102.046 52.2557C98.9212 47.0008 95.4279 41.3782 95.9985 35.294C96.0006 35.2736 96.0026 35.2511 96.0067 35.2307C96.2214 33.0454 97.5202 31.4749 99.3343 30.468H91.4356C91.3313 36.1437 94.5996 41.1535 97.5406 46.1001C100.666 51.353 103.646 57.4637 101.991 63.3477C99.8231 71.031 81.8714 62.0246 73.9338 61.0851C71.6922 60.8216 75.253 61.759 73.1157 61.0851C69.7636 60.0292 69.3919 69.7137 66.1298 68.2922C64.0989 67.4058 62.0659 66.5256 60.0063 65.7434C59.1535 65.4186 58.2822 65.1143 57.4007 64.8325C57.3999 64.8324 57.3991 64.8322 57.3984 64.8319C57.3977 64.8315 57.3971 64.831 57.3966 64.8304C51.4777 62.9474 45.0045 62.2142 39.5355 64.9366C39.4987 64.955 39.4598 64.9734 39.423 64.9918C33.2198 68.137 29.8963 74.938 27.2947 81.3836C25.1451 86.7121 25.4833 96.9874 24.4238 102.608Z" fill="#F2F2F2"/>
<path d="M60.0796 102.429C30.7238 103.054 30.0801 90.135 30.0801 74.7684C30.0801 59.4018 43.4666 47.3809 60.055 47.3809C76.6435 47.3809 89.818 59.3974 89.818 74.7636C89.818 90.1298 76.6681 102.429 60.0796 102.429Z" fill="white"/>
<path d="M59.9126 102.598C30.5568 103.222 29.9131 90.3031 29.9131 74.9366C29.9131 59.57 43.4088 47.0688 59.9973 47.0688C76.5858 47.0688 90.0815 59.5704 90.0815 74.9366C90.0815 90.3028 76.5011 102.598 59.9126 102.598ZM59.9973 47.8357C43.8652 47.8357 31.0126 59.9952 30.7409 74.9366C30.4882 88.8339 46.426 106.176 59.9973 102.038C67.2753 94.6129 87.8519 86.6159 89.2538 74.9366C91.0364 60.0846 76.1295 47.8357 59.9973 47.8357Z" fill="#575A88"/>
<path d="M8.80843e-07 102.629C-7.70496e-05 102.656 0.00501679 102.682 0.0149894 102.706C0.0249619 102.73 0.0396164 102.752 0.0581097 102.771C0.0766031 102.789 0.0985703 102.804 0.122748 102.814C0.146925 102.824 0.172835 102.829 0.198988 102.829H119.801C119.854 102.829 119.904 102.808 119.942 102.771C119.979 102.733 120 102.682 120 102.629C120 102.576 119.979 102.525 119.942 102.488C119.904 102.451 119.854 102.429 119.801 102.429H0.198988C0.172836 102.429 0.146926 102.434 0.122748 102.444C0.0985714 102.455 0.0766044 102.469 0.0581112 102.488C0.039618 102.506 0.0249635 102.528 0.0149907 102.553C0.00501791 102.577 -7.63838e-05 102.603 8.80843e-07 102.629Z" fill="#CCCCCC"/>
<path d="M80.5899 100.071H78.5245L77.542 92.0669L80.5904 92.0671L80.5899 100.071Z" fill="#A0616A"/>
<path d="M80.6628 102.235L74.3115 102.235V102.155C74.3116 101.496 74.572 100.864 75.0356 100.398C75.4992 99.9326 76.128 99.6709 76.7836 99.6709L77.9439 98.7866L80.1085 99.671L80.6629 99.671L80.6628 102.235Z" fill="#2F2E41"/>
<path d="M77.452 81.5177C75.0934 79.2167 72.383 77.3104 69.4238 75.8715L67.9145 77.5833L68.8758 75.6112C64.915 73.794 60.6154 72.8424 56.2613 72.8193C51.9072 72.7962 47.5978 73.7021 43.6182 75.4771L44.4024 77.1883L43.1983 75.6675C40.0897 77.1202 37.2449 79.0852 34.7817 81.4811C34.5285 81.7182 34.3721 82.0414 34.3428 82.3878C34.3302 82.5761 34.3579 82.7649 34.4242 82.9414C34.4904 83.118 34.5936 83.2782 34.7268 83.4112C35.1063 83.5917 35.6471 84.006 36.4507 85.143C36.6971 85.3871 37.0287 85.525 37.3748 85.5271C37.7208 85.5293 38.0541 85.3955 38.3035 85.1544C43.0754 80.5135 49.4566 77.9188 56.0981 77.9188C62.7395 77.9188 69.1207 80.5135 73.8927 85.1544C74.1421 85.3955 74.4753 85.5293 74.8214 85.5271C75.1675 85.525 75.4991 85.3871 75.7455 85.143C76.5541 84.4123 76.743 83.3795 77.4376 83.4429C77.6823 83.2052 77.8307 82.885 77.8543 82.5439C77.8646 82.3538 77.834 82.1638 77.7646 81.9867C77.6951 81.8096 77.5885 81.6496 77.452 81.5177Z" fill="#FF8733"/>
<path d="M61.7051 84.0084L59.6397 84.0082L58.6572 76.0044L61.7054 76.0046L61.7051 84.0084Z" fill="#A0616A"/>
<path d="M61.777 86.1732L55.4258 86.173V86.0923C55.4258 85.4336 55.6863 84.8019 56.1499 84.3361C56.6135 83.8704 57.2422 83.6087 57.8979 83.6086L59.0582 82.7244L61.2227 83.6088L61.7771 83.6088L61.777 86.1732Z" fill="#2F2E41"/>
<path d="M82.9517 54.5403L68.2943 56.0788L64.6928 59.6541L58.964 61.5335C58.2427 61.77 57.6105 62.2223 57.152 62.8296C56.6935 63.437 56.4306 64.1706 56.3983 64.9322C56.2493 68.4425 55.9546 74.2706 55.6435 74.2096C55.1987 74.1223 56.0879 76.3062 56.7107 76.1794C57.3335 76.0526 57.9812 77.4766 57.5506 77.7298C57.12 77.983 57.8373 80.1491 57.8373 80.1491L62.3238 79.4228C62.8854 75.1669 64.9365 70.681 62.5191 67.5497C66.6131 66.2149 70.2198 65.0987 72.8717 64.4108L74.3061 63.8129L77.284 95.6024L81.4953 95.6718C82.6573 89.666 83.2411 84.2606 82.3328 80.4045C82.3328 80.4045 82.4633 68.8204 82.9613 68.9471C83.4594 69.0738 83.0372 67.5647 83.0372 67.5647C83.0372 67.5647 82.601 66.2794 83.1369 65.7462C83.6729 65.213 83.3382 62.0771 83.3382 62.0771C84.2237 59.1093 83.9572 56.6589 82.9517 54.5403Z" fill="#2F2E41"/>
<path d="M84.6841 48.0536C84.8293 47.3995 84.9745 46.7454 85.1196 46.0912C85.5274 44.2594 85.9344 42.4284 86.3409 40.5982C86.8745 38.2002 87.4104 35.7187 86.9514 33.3056C86.8826 32.9427 86.7862 32.5856 86.6632 32.2375C85.9758 30.2621 84.4578 28.5311 82.4448 28.1666L82.1159 26.9354L77.6242 26.3799L76.7741 27.5578C74.9443 27.4108 73.8581 29.2413 72.5959 30.7498L72.0942 31.2538C71.7286 31.7131 71.6537 33.4388 71.4254 33.9417C70.4104 36.1776 71.8091 34.0047 71.7598 36.4615C71.7089 39.0075 71.2106 41.478 71.1595 44.0238C71.154 44.297 70.5689 44.5052 70.4683 44.9842C70.4139 45.2426 70.8672 45.7221 70.7985 46.0111C70.7398 46.2578 71.0327 47.2491 70.9699 47.504C70.6783 48.6867 70.0179 49.1524 69.989 49.7355C69.9758 49.96 69.9425 50.1828 69.8896 50.4012C69.8534 50.5562 69.3471 50.3705 69.2978 50.5279C69.2149 50.7924 69.5795 51.4015 69.4795 51.6662C69.2862 52.1786 69.4162 53.0835 69.2978 53.5517C68.8008 55.5175 68.9916 54.7374 67.9141 56.4526C70.672 57.2902 71.8632 60.0956 74.7002 60.6005C74.828 60.1853 74.9555 59.769 75.0826 59.3516C75.4587 59.3759 75.837 59.3985 76.2153 59.4194C76.2366 59.7817 76.258 60.1443 76.2794 60.5046C79.1551 60.6908 82.0393 60.7066 84.9168 60.5518C84.8204 60.2613 84.7434 59.9646 84.6863 59.6638C84.5284 58.8273 84.8679 57.9201 84.9041 57.0921C84.9297 56.4787 84.6394 55.9575 84.6479 55.2968C84.65 55.1746 85.3332 55.0717 85.3311 54.9472C85.3203 53.849 84.6992 52.3798 84.9041 51.3009C85.1175 50.1921 84.4409 49.1563 84.6842 48.054L84.6841 48.0536Z" fill="#3F3D56"/>
<path d="M63.6737 21.5278C63.2929 21.5283 62.9278 21.6805 62.6585 21.951C62.3892 22.2216 62.2377 22.5884 62.2373 22.971V31.6669C62.2377 32.0495 62.3892 32.4163 62.6585 32.6869C62.9278 32.9574 63.2929 33.1096 63.6737 33.1101H66.3515C66.7323 33.1096 67.0974 32.9574 67.3667 32.6869C67.636 32.4163 67.7875 32.0495 67.7879 31.6669C68.2147 27.2974 68.0578 24.9393 67.7879 22.971C67.7875 22.5884 67.636 22.2216 67.3667 21.951C67.0974 21.6805 66.7323 21.5283 66.3515 21.5278L63.6737 21.5278Z" fill="#FF8733"/>
<path d="M63.3395 21.5278C62.9587 21.5283 62.5936 21.6805 62.3243 21.951C62.055 22.2216 61.9036 22.5884 61.9031 22.971C61.7493 26.3892 61.6423 29.6491 61.9031 31.6668C61.9035 32.0495 62.055 32.4163 62.3243 32.6869C62.5936 32.9574 62.9587 33.1096 63.3395 33.11H66.0173C66.3981 33.1096 66.7632 32.9574 67.0325 32.6869C67.3018 32.4163 67.4532 32.0495 67.4537 31.6669V22.971C67.4532 22.5884 67.3018 22.2216 67.0325 21.951C66.7632 21.6805 66.3981 21.5283 66.0173 21.5278L63.3395 21.5278Z" fill="#3F3D56"/>
<path d="M70.233 34.1837C70.233 34.1837 72.7657 34.0805 71.4766 35.1791C70.6377 35.8941 68.7488 40.8712 66.7863 41.4734C66.5553 41.5441 66.3121 41.5659 66.0722 41.5373C65.8323 41.5087 65.601 41.4304 65.3928 41.3073C65.1846 41.1842 65.0041 41.019 64.8628 40.8221C64.7215 40.6253 64.6225 40.4011 64.5719 40.1638L62.793 31.8331L65.1167 31.478L66.5329 38.0714L70.233 34.1837Z" fill="#A0616A"/>
<path d="M64.083 32.4416C64.9907 32.4416 65.7265 31.7024 65.7265 30.7904C65.7265 29.8784 64.9907 29.1392 64.083 29.1392C63.1753 29.1392 62.4395 29.8784 62.4395 30.7904C62.4395 31.7024 63.1753 32.4416 64.083 32.4416Z" fill="#A0616A"/>
<path d="M73.6676 29.6316C75.1732 30.7675 75.6166 34.4926 74.6705 36.1281C72.862 39.2546 69.2965 41.6617 69.1445 41.3274C68.9362 40.8696 68.5734 41.4843 68.5857 41.6855C68.598 41.8868 67.9112 41.8268 67.9912 42.0397C68.0712 42.2527 67.5292 42.299 67.2937 42.4224C67.2937 42.4224 65.1392 42.459 64.4594 41.4712C63.7797 40.4834 63.6886 39.1183 63.6886 39.1183L62.8447 38.1208L67.3187 35.4932L66.95 37.2668L69.1819 34.6558L69.6542 33.6083L70.4078 33.2217L70.6575 32.4323L71.3523 32.1167L74.1004 28.9019L73.6676 29.6316Z" fill="#3F3D56"/>
<path d="M86.0305 60.2328C86.2183 60.1083 86.3766 59.944 86.4944 59.7514C86.6121 59.5588 86.6864 59.3427 86.712 59.1181C86.7376 58.8936 86.7138 58.6661 86.6425 58.4518C86.5711 58.2374 86.4538 58.0414 86.2989 57.8775L86.615 43.752L83.8369 44.1862L84.0328 57.8871C83.7761 58.1668 83.6304 58.5315 83.6233 58.9119C83.6163 59.2924 83.7484 59.6622 83.9946 59.9514C84.2409 60.2405 84.5841 60.4289 84.9593 60.4807C85.3346 60.5326 85.7157 60.4444 86.0305 60.2328Z" fill="#A0616A"/>
<path d="M86.1512 31.7114C86.1512 31.7114 85.9669 31.8514 86.9119 33.298C87.0994 33.5849 87.2264 34.7418 87.3153 36.2514C87.3442 36.7432 87.6229 37.0887 87.6445 37.6375C87.6629 38.1032 87.4251 38.7668 87.4393 39.2498C87.4468 39.5075 87.638 39.7316 87.6445 39.9894C87.6472 40.0968 87.4657 40.2385 87.4682 40.3455C87.471 40.461 87.4737 40.5761 87.4763 40.6909C87.5412 43.56 87.5551 46.1513 87.6196 46.1076C87.7572 46.0142 87.4156 46.4966 87.5864 46.5771C87.7572 46.6577 87.4405 47.0573 87.5221 47.2644C87.6216 47.5167 87.498 47.7951 87.4199 48.0484C87.1944 48.7799 87.1458 49.408 86.9498 49.7554C87.1825 49.8896 87.3642 50.0977 87.4662 50.347C87.5683 50.5964 87.5848 50.8727 87.5133 51.1326L83.5978 50.4213C83.1205 49.653 83.1894 48.8466 83.5147 48.7061L83.4179 46.2059L82.3027 33.2707L85.5709 31.8047L86.1512 31.7114Z" fill="#3F3D56"/>
<path d="M61.85 23.7581C61.7938 23.7581 61.748 23.785 61.748 23.818V24.298C61.748 24.3311 61.7938 24.358 61.85 24.358C61.9062 24.358 61.9519 24.3311 61.9519 24.298V23.818C61.9519 23.785 61.9062 23.7581 61.85 23.7581Z" fill="#3F3D56"/>
<path d="M61.85 25.0298C61.7938 25.0298 61.748 25.0567 61.748 25.0898V26.0197C61.748 26.0527 61.7938 26.0796 61.85 26.0796C61.9062 26.0796 61.9519 26.0527 61.9519 26.0197V25.0898C61.9519 25.0567 61.9062 25.0298 61.85 25.0298Z" fill="#3F3D56"/>
<path d="M67.5348 25.198C67.5048 25.2014 67.4773 25.2165 67.4583 25.24C67.4392 25.2636 67.4301 25.2936 67.4328 25.3238V27.2739C67.4297 27.2891 67.43 27.3048 67.4336 27.3199C67.4373 27.335 67.4443 27.3491 67.454 27.3611C67.4638 27.3732 67.4761 27.3829 67.4901 27.3896C67.504 27.3962 67.5193 27.3997 67.5348 27.3997C67.5502 27.3997 67.5655 27.3962 67.5794 27.3896C67.5934 27.3829 67.6057 27.3732 67.6155 27.3611C67.6252 27.3491 67.6322 27.335 67.6359 27.3199C67.6395 27.3048 67.6398 27.2891 67.6367 27.2739V25.3238C67.6394 25.2936 67.6303 25.2636 67.6112 25.24C67.5922 25.2165 67.5647 25.2014 67.5348 25.198Z" fill="#3F3D56"/>
<path d="M61.682 26.5178C61.6258 26.5178 61.5801 26.5447 61.5801 26.5778V27.5077C61.5801 27.5408 61.6258 27.5677 61.682 27.5677C61.7382 27.5677 61.7839 27.5408 61.7839 27.5077V26.5778C61.7839 26.5447 61.7382 26.5178 61.682 26.5178Z" fill="#3F3D56"/>
<path d="M79.555 25.9436C81.8733 25.9436 83.7526 24.0555 83.7526 21.7263C83.7526 19.3972 81.8733 17.509 79.555 17.509C77.2368 17.509 75.3574 19.3972 75.3574 21.7263C75.3574 24.0555 77.2368 25.9436 79.555 25.9436Z" fill="#A0616A"/>
<path d="M84.2422 23.664C83.9145 24.3229 83.6026 24.735 83.036 25.1033C83.0072 25.0194 82.984 24.9336 82.9664 24.8465C82.9061 24.982 82.8472 25.1171 82.7855 25.2528C82.4271 25.4539 82.8139 25.1437 82.2272 25.3685L81.7336 24.5175C81.5985 24.1136 81.79 23.6736 82.0336 23.3241C82.2774 22.9759 82.5809 22.6567 82.7131 22.252C82.8453 21.8472 82.728 21.311 82.3317 21.1603C81.9414 21.0099 81.5103 21.2953 81.0955 21.2457C80.6167 21.189 80.2909 20.6857 80.2649 20.2014C80.2389 19.7172 80.4356 19.2523 80.628 18.8092C80.0482 19.2267 78.252 19.9746 77.2741 20.0104C77.2478 19.7039 77.1068 19.4189 76.8796 19.2127C76.9194 19.4917 76.8518 19.7754 76.6906 20.0061C75.7333 19.9567 75.5533 21.3537 75.059 20.8479C75.2133 20.7699 74.6447 19.0337 74.799 18.9557C74.6802 18.6289 74.5617 18.3029 74.4434 17.978C74.6633 18.0337 74.885 18.0905 75.1064 18.1459C75.1202 18.0271 75.1561 17.9119 75.2124 17.8065C75.3702 17.7161 75.5381 17.6449 75.7126 17.5943C75.7689 17.5792 75.8265 17.5638 75.8848 17.5513C75.971 17.532 76.0583 17.5177 76.1462 17.5085C76.0189 17.4343 75.8905 17.3619 75.7629 17.2863C75.7477 17.2776 75.7339 17.2687 75.7186 17.26C75.8979 17.1362 76.0851 17.0246 76.2791 16.9258C77.097 16.4959 77.946 16.0579 78.868 16.0043C79.4671 15.966 80.0608 16.1377 80.548 16.4902C80.968 16.7933 81.4766 16.947 81.9934 16.927C82.2448 16.9251 82.4933 16.9807 82.7201 17.0896C82.6161 17.1947 82.5025 17.2897 82.3807 17.3732C82.6468 17.3802 82.9114 17.3874 83.1777 17.3958C83.476 17.6685 83.7276 17.9887 83.9223 18.3436C84.8554 19.9452 85.0686 22.0048 84.2422 23.664Z" fill="#2F2E41"/>
<path d="M70.762 89.3666C70.7302 89.156 70.6488 88.9561 70.5246 88.7836C70.4003 88.611 70.2369 88.4708 70.0478 88.3745C68.2733 87.462 66.4135 86.7278 64.4954 86.1824L62.7005 88.5597L64.0271 86.0512C59.117 84.7278 53.9562 84.6542 49.0107 85.8372L49.701 87.7493L48.5733 85.9466C46.3465 86.5092 44.1904 87.3237 42.1463 88.3745C41.9581 88.4713 41.7953 88.6115 41.6713 88.7835C41.5472 88.9555 41.4654 89.1546 41.4324 89.3644C41.3995 89.5743 41.4163 89.789 41.4817 89.991C41.547 90.1931 41.6589 90.3767 41.8083 90.5271C42.5843 90.575 43.0968 91.2994 43.6083 92.3354C43.8042 92.5298 44.0552 92.6585 44.3268 92.7039C44.5984 92.7493 44.8774 92.7093 45.1254 92.5892C48.5532 90.9512 52.3013 90.1014 56.0971 90.1014C59.8929 90.1014 63.6409 90.9512 67.0687 92.5892C67.3168 92.7093 67.5957 92.7494 67.8673 92.7039C68.1389 92.6585 68.3898 92.5298 68.5857 92.3354C68.8932 91.4978 69.527 91.0024 70.3858 90.5271C70.536 90.3777 70.6485 90.1945 70.7139 89.9926C70.7793 89.7908 70.7958 89.5761 70.762 89.3666Z" fill="#FF8733"/>
<path d="M60.8454 97.5536C60.4523 97.4916 60.0569 97.4374 59.659 97.3912L58.0997 99.884L59.2616 97.3487C57.3736 97.1548 55.472 97.1347 53.5804 97.2886L54.7697 99.884L53.1687 97.3245C52.5577 97.3827 51.9511 97.4591 51.349 97.5536C51.1428 97.5842 50.9495 97.6727 50.7911 97.8088C50.6327 97.9449 50.5158 98.1231 50.4537 98.323C50.3876 98.5246 50.3786 98.7406 50.4276 98.947C50.4767 99.1535 50.5819 99.3421 50.7315 99.4919C51.3754 100.126 52.0853 101.006 53.2521 102.024C53.3659 102.14 53.5034 102.23 53.6551 102.287C53.8068 102.344 53.969 102.368 54.1307 102.356C54.7772 102.308 55.4389 102.284 56.0972 102.284C56.7555 102.284 57.4171 102.308 58.0637 102.356C58.2253 102.368 58.3875 102.344 58.5392 102.287C58.6908 102.23 58.8284 102.14 58.9423 102.024C60.1472 100.991 60.756 100.044 61.4629 99.4919C61.6125 99.3421 61.7177 99.1535 61.7668 98.947C61.8158 98.7406 61.8068 98.5246 61.7406 98.323C61.6786 98.1231 61.5617 97.9449 61.4033 97.8088C61.2449 97.6727 61.0515 97.5842 60.8454 97.5536Z" fill="#FF8733"/>
</svg>
