<svg width="18" height="17" viewBox="0 0 18 17" fill="none" xmlns="http://www.w3.org/2000/svg">
<path d="M0 6.49996V10.5C0 11.05 0.45 11.5 1 11.5H4L7.29 14.79C7.92 15.42 9 14.97 9 14.08V2.90996C9 2.01996 7.92 1.56996 7.29 2.19996L4 5.49996H1C0.45 5.49996 0 5.94996 0 6.49996ZM13.5 8.49996C13.5 6.72996 12.48 5.20996 11 4.46996V12.52C12.48 11.79 13.5 10.27 13.5 8.49996ZM11 0.949963V1.14996C11 1.52996 11.25 1.85996 11.6 1.99996C14.18 3.02996 16 5.55996 16 8.49996C16 11.44 14.18 13.97 11.6 15C11.24 15.14 11 15.47 11 15.85V16.05C11 16.68 11.63 17.12 12.21 16.9C15.6 15.61 18 12.34 18 8.49996C18 4.65996 15.6 1.38996 12.21 0.0999629C11.63 -0.130037 11 0.319963 11 0.949963Z" fill="#FF8733"/>
</svg>
