<svg width="16" height="17" viewBox="0 0 16 17" fill="none" xmlns="http://www.w3.org/2000/svg">
<path d="M7.99996 4.89002L8.93996 8.00002H11.76L9.48996 9.62002L10.42 12.63L7.99996 10.79L5.57996 12.63L6.50996 9.62002L4.23996 8.00002H7.05996L7.99996 4.89002ZM5.57996 6.00002H1.11996C0.149959 6.00002 -0.250041 7.25002 0.539959 7.81002L4.17996 10.41L2.74996 15.02C2.45996 15.95 3.53996 16.7 4.30996 16.11L7.99996 13.31L11.69 16.12C12.46 16.71 13.54 15.96 13.25 15.03L11.82 10.42L15.46 7.82002C16.25 7.25002 15.85 6.01002 14.88 6.01002H10.42L8.94996 1.17002C8.65996 0.22002 7.31996 0.22002 7.03996 1.17002L5.57996 6.00002Z" fill="#FF8733"/>
</svg>
