<svg width="76" height="76" viewBox="0 0 76 76" fill="none" xmlns="http://www.w3.org/2000/svg">
<g clip-path="url(#clip0_1_1267)">
<path d="M16.2829 61.0178C19.7418 63.0101 24.0505 63.4877 28.9303 63.3549C28.8475 61.8489 29.3566 60.3702 30.3491 59.2344C31.3416 58.0987 32.7387 57.3959 34.2422 57.2761C35.7458 57.1563 37.2365 57.629 38.3963 58.5933C39.5561 59.5575 40.293 60.937 40.4497 62.4371C46.619 61.8362 53.2395 61.2978 59.9321 62.0527C76.9727 63.9747 70.6892 30.7603 58.1413 18.4279C45.5933 6.09544 26.0509 5.6321 14.492 17.393C2.93315 29.1538 1.10349 52.2746 16.2829 61.0178Z" fill="#F2F3FA"/>
<path d="M40.8064 66.2399C60.2433 66.2399 76 63.8118 76 60.8167C76 57.8216 60.2433 55.3936 40.8064 55.3936C21.3695 55.3936 5.61279 57.8216 5.61279 60.8167C5.61279 63.8118 21.3695 66.2399 40.8064 66.2399Z" fill="#3F3D56"/>
<path d="M39.3273 44.9645C39.3273 44.9645 33.0319 44.206 32.2734 45.5713C31.515 46.9366 32.0459 48.0743 33.0319 48.7569C34.018 49.4395 39.479 52.5493 39.479 52.5493L39.9341 53.3078L40.9202 53.1561L41.9062 52.2459L41.4511 51.4116C41.4511 51.4116 37.6587 49.1362 37.5828 48.5294C37.5828 48.5294 41.0719 50.1222 41.4511 49.8188C41.8303 49.5154 46.0778 48.0743 45.3952 47.2399C44.7126 46.4056 42.9681 45.192 42.9681 45.192L39.3273 44.9645Z" fill="#2F2E41"/>
<path opacity="0.1" d="M39.3273 44.9645C39.3273 44.9645 33.0319 44.206 32.2734 45.5713C31.515 46.9366 32.0459 48.0743 33.0319 48.7569C34.018 49.4395 39.479 52.5493 39.479 52.5493L39.9341 53.3078L40.9202 53.1561L41.9062 52.2459L41.4511 51.4116C41.4511 51.4116 37.6587 49.1362 37.5828 48.5294C37.5828 48.5294 41.0719 50.1222 41.4511 49.8188C41.8303 49.5154 46.0778 48.0743 45.3952 47.2399C44.7126 46.4056 42.9681 45.192 42.9681 45.192L39.3273 44.9645Z" fill="black"/>
<path d="M40.1617 52.6252C40.1617 52.6252 39.0239 52.3977 39.2515 53.1562C39.479 53.9147 39.6307 55.4316 39.2515 55.8109C38.8722 56.1901 37.6587 57.8588 38.8722 58.0105C40.0858 58.1622 41.3752 56.6452 41.3752 56.6452C41.3752 56.6452 42.2096 54.2181 42.8164 53.9905C43.4231 53.763 44.0299 52.8528 43.7265 52.6252C43.4231 52.3977 41.6028 50.9566 41.4511 51.0324C41.2994 51.1083 41.3752 51.9426 41.3752 51.9426C41.3752 51.9426 40.7685 52.9286 40.1617 52.6252Z" fill="#2F2E41"/>
<path d="M49.9841 49.7808H39.8962V58.0482H49.9841V49.7808Z" fill="#FF8733"/>
<path d="M0 36.9609V38.8065L9.12349 49.705H10.6684L0 36.9609Z" fill="#FF8733"/>
<path d="M0 22.8914V24.7368L20.9016 49.705H22.4465L0 22.8914Z" fill="#FF8733"/>
<path d="M32.9055 63.8391L34.5272 64.7201L63.4471 58.8789L64.1846 57.5215L32.9055 63.8391Z" fill="#FF8733"/>
<path d="M0 27.5811V29.4265L16.9755 49.7049H18.5205L0 27.5811Z" fill="#FF8733"/>
<path d="M29.2775 22.1915V20.4275H27.8008L29.2775 22.1915Z" fill="#FF8733"/>
<path d="M0 46.3406V48.186L1.27152 49.7049H2.8164L0 46.3406Z" fill="#FF8733"/>
<path d="M16.7437 61.652L18.4251 62.4128L26.2243 60.2369L26.8611 58.8293L16.7437 61.652Z" fill="#FF8733"/>
<path d="M0 43.9956V45.8411L3.23448 49.7049H4.77943L0 43.9956Z" fill="#FF8733"/>
<path d="M0 39.3057V41.1512L7.16054 49.7048H8.70541L0 39.3057Z" fill="#FF8733"/>
<path d="M0 29.926V31.7715L15.0126 49.7049H16.5575L0 29.926Z" fill="#FF8733"/>
<path d="M17.5677 20.4275H16.0227L29.2775 36.2611V34.4157L17.5677 20.4275Z" fill="#FF8733"/>
<path d="M21.4936 20.4275H19.9487L29.2775 31.5713V29.7257L21.4936 20.4275Z" fill="#FF8733"/>
<path d="M25.4195 20.4275H23.8745L29.2773 26.8813V25.0359L25.4195 20.4275Z" fill="#FF8733"/>
<path d="M1.86348 20.4275H0.318604L24.8275 49.7049H26.3724L1.86348 20.4275Z" fill="#FF8733"/>
<path d="M3.82645 20.4275H2.28149L26.7905 49.7049H28.3354L3.82645 20.4275Z" fill="#FF8733"/>
<path d="M7.7524 20.4275H6.20752L29.2773 47.9858V46.1403L7.7524 20.4275Z" fill="#FF8733"/>
<path d="M11.6785 20.4275H10.1335L29.2774 43.2959V41.4504L11.6785 20.4275Z" fill="#FF8733"/>
<path d="M13.6416 20.4275H12.0967L29.2775 40.951V39.1055L13.6416 20.4275Z" fill="#FF8733"/>
<path d="M40.8459 29.761C40.8459 29.761 40.9337 30.0535 40.4365 30.3167C39.9392 30.5799 39.793 31.5744 40.378 31.8669C40.9629 32.1593 41.1384 32.5396 40.8459 32.8028C40.5535 33.066 40.027 33.768 40.7289 33.9435C41.4309 34.119 41.5187 34.47 41.3139 34.6162C41.1092 34.7624 41.7819 34.353 41.7819 34.353C41.7819 34.353 41.8989 35.0549 42.5131 34.8794C43.1273 34.704 44.853 31.3696 43.9755 30.9017C43.0981 30.4337 40.8459 29.761 40.8459 29.761Z" fill="#2F2E41"/>
<path d="M40.0481 36.4314L37.2417 38.4035C37.2417 38.4035 35.1179 36.2039 35.1179 34.9145C35.1179 33.6251 33.9802 31.1979 33.4493 32.1839C32.9183 33.17 34.0561 35.5213 34.0561 35.5213L36.1798 40.5272C36.1798 40.5272 37.3934 40.7548 38.076 40.2239C38.7587 39.6929 40.6549 38.631 40.6549 38.631L40.0481 36.4314Z" fill="#FFB9B9"/>
<path d="M42.8164 33.132C43.9893 33.132 44.9401 32.1812 44.9401 31.0083C44.9401 29.8354 43.9893 28.8845 42.8164 28.8845C41.6435 28.8845 40.6926 29.8354 40.6926 31.0083C40.6926 32.1812 41.6435 33.132 42.8164 33.132Z" fill="#FFB9B9"/>
<path d="M41.7166 32.4875C41.7166 32.4875 42.4751 34.4595 42.1717 34.9146C41.8683 35.3697 41.4891 35.3697 41.1857 35.5214C41.034 35.5973 39.4412 36.204 39.4412 36.6591C39.4485 36.9515 39.5266 37.2378 39.6687 37.4935L39.8963 38.7829L41.7925 39.9965L44.2955 39.6931L46.1917 38.6312C46.1917 38.6312 46.4951 35.8248 45.6607 35.3697C44.8264 34.9146 43.8404 33.8527 43.9162 33.4735C43.9921 33.0943 44.0679 32.1841 44.0679 32.1841L41.7166 32.4875Z" fill="#FFB9B9"/>
<path d="M38.531 37.1899C38.531 37.1899 39.6687 38.3276 39.6687 38.4793C39.6687 38.631 38.9102 39.3136 39.4412 40.2238C39.9721 41.134 39.9721 43.4094 39.9721 43.4094L41.7925 43.7887L45.2057 43.4853L45.7366 38.2518C45.7366 38.2518 44.3713 38.4793 44.0679 38.7068C43.7645 38.9344 42.9302 38.4035 42.3234 38.4035C41.7166 38.4035 39.9721 38.1001 39.9721 38.1001L40.1238 37.4933L39.517 36.4314L38.531 37.1899Z" fill="#FF6584"/>
<path d="M42.8165 45.2677C42.8165 45.2677 35.1558 41.8546 34.5491 44.0542C33.9423 46.2538 33.8664 51.5632 33.8664 51.5632C33.8664 51.5632 33.4872 55.2039 33.0321 55.5831C32.577 55.9624 33.0321 57.1001 33.0321 57.1001L34.1698 57.4793L35.2317 57.0242L35.6868 55.8107C35.6868 55.8107 35.8385 53.0801 36.4453 51.7148C37.0521 50.3496 37.0521 47.1639 36.9762 47.0123C36.9762 47.0123 39.9343 50.653 42.8165 50.4254C45.6988 50.1979 46.1159 49.5532 46.1159 49.5532C46.1159 49.5532 44.7127 45.2677 42.8165 45.2677Z" fill="#2F2E41"/>
<path d="M33.4871 55.9624C33.4871 55.9624 33.1837 54.9005 32.5011 55.7348C31.8185 56.5692 28.7087 57.8586 28.6328 58.0103C28.557 58.162 27.1917 58.9963 28.7845 60.134C30.3773 61.2718 32.5011 60.134 32.5011 60.134C32.5011 60.134 34.3214 59.5273 34.7765 59.6031C35.2316 59.679 36.1418 59.2239 36.2177 58.8446C36.2935 58.4654 36.1143 55.1314 35.7109 55.471C35.3075 55.8107 34.8524 56.7209 34.8524 56.7209C34.8524 56.7209 33.3354 57.1001 33.4871 55.9624Z" fill="#2F2E41"/>
<path d="M40.2375 43.2199C40.2375 43.2199 39.8203 43.182 39.8962 44.168C39.8962 44.168 42.5129 44.9644 42.968 45.6471C43.4231 46.3297 45.3952 48.3776 45.6986 49.8187C45.6986 49.8187 47.8982 49.2878 46.6846 45.4954L45.2578 42.4019C45.2578 42.4019 44.4092 44.1301 40.2375 43.2199Z" fill="#2F2E41"/>
<path d="M42.023 45.0634L44.599 43.9405C44.599 43.9405 45.8125 41.4375 45.8125 40.2239C45.8273 39.5256 45.8811 38.8287 45.9737 38.1364C46.0311 37.701 45.9811 37.2582 45.8282 36.8465C45.6753 36.4348 45.4241 36.0667 45.0965 35.7742C44.8286 35.54 44.5279 35.3696 44.2197 35.3696C44.2197 35.3696 43.3096 37.0383 43.4612 38.5553C43.6129 40.0722 43.2337 42.3477 43.2337 42.3477L39.8064 44.182" fill="#FFB9B9"/>
<path opacity="0.1" d="M42.023 45.0633L44.599 43.9404C44.599 43.9404 45.8125 41.4374 45.8125 40.2238C45.8125 39.5917 43.1579 37.7208 43.3096 39.2378C43.4612 40.7548 43.2337 42.3476 43.2337 42.3476L39.8064 44.1819" fill="black"/>
<path d="M43.2334 39.0863L43.4752 40.1102L44.8262 40.755H45.9639L46.4949 38.3278C46.4949 38.3278 45.5574 38.1295 45.0781 38.3804C44.5987 38.6312 43.4729 38.6912 43.4729 38.6912L43.2334 39.0863Z" fill="#FF6584"/>
<path d="M42.8336 28.8767C42.8336 28.8767 42.9308 29.2007 42.38 29.4923C41.8292 29.7839 41.6672 30.8856 42.3152 31.2096C42.9632 31.5336 43.1576 31.9548 42.8336 32.2464C42.5096 32.5381 41.9264 33.3157 42.704 33.5101C43.4816 33.7045 43.5788 34.0933 43.352 34.2553C43.1252 34.4173 43.8705 33.9637 43.8705 33.9637C43.8705 33.9637 44.0001 34.7413 44.6805 34.5469C45.3609 34.3525 46.0398 30.8186 45.2813 29.9085C44.5761 29.0622 42.8336 28.8767 42.8336 28.8767Z" fill="#2F2E41"/>
<path d="M42.6267 28.5434C42.6269 28.0687 45.5772 28.5898 46.1861 29.2526C46.6078 29.7116 47.2482 30.4021 46.7116 30.8888C46.1749 31.3755 46.1012 31.8336 46.4919 32.027C46.8825 32.2205 47.6538 32.8121 46.9574 33.2089C46.261 33.6058 46.2722 34.0064 46.5343 34.1013C46.7964 34.1961 45.9565 33.9602 45.9565 33.9602C45.9565 33.9602 46.0413 34.744 45.3337 34.7403C44.626 34.7365 42.5958 30.8475 43.0808 29.7665C43.5318 28.7614 42.6267 28.5434 42.6267 28.5434Z" fill="#2F2E41"/>
<path d="M42.9342 28.4394C41.0351 28.325 40.8445 29.7546 40.8445 29.7546C40.8576 30.5819 42.1714 30.1788 42.5363 30.3021C42.9765 29.9854 43.825 29.3862 44.4319 28.9586C43.9913 28.6484 43.4723 28.4684 42.9342 28.4394Z" fill="#2F2E41"/>
<path d="M27.9317 25.8887H26.3867L33.7525 34.6875V32.842L27.9317 25.8887Z" fill="#FF8733"/>
<path d="M36.852 59.7578L35.7822 60.8725L59.4351 62.4803L58.1036 61.2024L36.852 59.7578Z" fill="#FF8733"/>
<path d="M60.303 53.4599C60.303 55.6801 58.9833 56.4552 57.3551 56.4552C57.3174 56.4552 57.2797 56.4547 57.2422 56.4538C57.1668 56.4522 57.0919 56.4487 57.0181 56.4435C55.5487 56.3396 54.4072 55.5246 54.4072 53.4599C54.4072 51.3235 57.1372 48.6274 57.3429 48.4275L57.3432 48.4272C57.351 48.4193 57.3551 48.4155 57.3551 48.4155C57.3551 48.4155 60.303 51.2399 60.303 53.4599Z" fill="#FF8733"/>
<path d="M57.2476 56.1155L58.3258 54.6092L57.2449 56.281L57.2422 56.4538C57.1667 56.4522 57.0918 56.4487 57.0181 56.4435L57.1342 54.2225L57.1334 54.2052L57.1353 54.2022L57.1464 53.9922L56.0627 52.3163L57.1496 53.8348L57.1524 53.8793L57.24 52.2012L56.3124 50.4694L57.2514 51.9068L57.3428 48.4275L57.3431 48.4155V48.4272L57.3279 51.1708L58.2515 50.083L57.3241 51.4071L57.2997 52.9096L58.1622 51.4676L57.2962 53.1308L57.2826 53.9661L58.5342 51.9589L57.2777 54.2575L57.2476 56.1155Z" fill="#3F3D56"/>
</g>
<defs>
<clipPath id="clip0_1_1267">
<rect width="76" height="76" fill="white"/>
</clipPath>
</defs>
</svg>
