<svg width="21" height="18" viewBox="0 0 21 18" fill="none" xmlns="http://www.w3.org/2000/svg">
<path d="M6.69003 6.7825H0.670034C0.180034 6.7825 -0.0199658 7.4025 0.380034 7.6925L5.29003 11.2025L3.40003 17.3025C3.26003 17.7625 3.79003 18.1425 4.18003 17.8525L9.11003 14.0925L14.04 17.8425C14.43 18.1325 14.96 17.7625 14.82 17.2925L12.93 11.1925L17.84 7.6825C18.24 7.4025 18.04 6.7725 17.55 6.7725H11.53L9.58003 0.3525C9.44003 -0.1175 8.77003 -0.1175 8.62003 0.3525L6.69003 6.7825ZM19.01 17.2925L17.61 12.7725L20.52 10.6925C20.92 10.4125 20.72 9.7825 20.23 9.7825H18.35L15.27 11.9825L16.73 16.7025L18.23 17.8425C18.62 18.1325 19.15 17.7525 19.01 17.2925ZM15.11 4.7825L13.77 0.3625C13.63 -0.1075 12.96 -0.1075 12.81 0.3625L12.24 2.2325L13.02 4.7825H15.11Z" fill="#AE978A"/>
</svg>
