<svg width="22" height="18" viewBox="0 0 22 18" fill="none" xmlns="http://www.w3.org/2000/svg">
<path d="M3.4075 9.9V12.71C3.4075 13.44 3.8075 14.12 4.4475 14.47L9.4475 17.2C10.0475 17.53 10.7675 17.53 11.3675 17.2L16.3675 14.47C17.0075 14.12 17.4075 13.44 17.4075 12.71V9.9L11.3675 13.2C10.7675 13.53 10.0475 13.53 9.4475 13.2L3.4075 9.9ZM9.4475 0.24L1.0175 4.84C0.3275 5.22 0.3275 6.22 1.0175 6.6L9.4475 11.2C10.0475 11.53 10.7675 11.53 11.3675 11.2L19.4075 6.81V12.72C19.4075 13.27 19.8575 13.72 20.4075 13.72C20.9575 13.72 21.4075 13.27 21.4075 12.72V6.31C21.4075 5.94 21.2075 5.61 20.8875 5.43L11.3675 0.24C10.7675 -0.08 10.0475 -0.08 9.4475 0.24Z" fill="#AE978A"/>
</svg>
